M48
; DRILL file KiCad 10.0.1 date 2026-06-17T16:04:21
; FORMAT={-:-/ absolute / metric / decimal}
; #@! TF.CreationDate,2026-06-17T16:04:21-07:00
; #@! TF.GenerationSoftware,Kicad,Pcbnew,10.0.1
; #@! TF.FileFunction,Plated,1,2,PTH
FMAT,2
METRIC
; #@! TA.AperFunction,Plated,PTH,ViaDrill
T1C0.300
; #@! TA.AperFunction,Plated,PTH,ComponentDrill
T2C0.700
; #@! TA.AperFunction,Plated,PTH,ComponentDrill
T3C0.750
; #@! TA.AperFunction,Plated,PTH,ComponentDrill
T4C0.800
; #@! TA.AperFunction,Plated,PTH,ComponentDrill
T5C0.900
; #@! TA.AperFunction,Plated,PTH,ComponentDrill
T6C1.000
; #@! TA.AperFunction,Plated,PTH,ComponentDrill
T7C1.100
; #@! TA.AperFunction,Plated,PTH,ComponentDrill
T8C1.220
; #@! TA.AperFunction,Plated,PTH,ComponentDrill
T9C1.420
; #@! TA.AperFunction,Plated,PTH,ComponentDrill
T10C1.430
%
G90
G05
T1
X38.67Y-60.13
X41.47Y-56.2
X46.92Y-83.61
X49.84Y-98.39
X52.07Y-55.6
X55.56Y-32.4
X59.01Y-23.85
X59.15Y-98.36
X69.71Y-23.78
X72.01Y-58.51
X74.66Y-39.07
X76.64Y-68.19
X80.63Y-56.71
X81.32Y-86.47
X81.97Y-98.28
X87.95Y-50.9
X87.98Y-43.652
X88.05Y-48.89
X88.68Y-56.72
X88.74Y-117.29
X88.79Y-83.59
X92.04Y-99.24
X92.1Y-123.45
X93.02Y-86.51
X94.93Y-53.73
X95.04Y-45.31
X101.44Y-24.3
X102.41Y-68.42
X105.24Y-44.08
X106.27Y-33.05
X107.35Y-48.92
X111.34Y-23.71
X112.75Y-96.46
X114.18Y-65.24
X116.74Y-94.0
X121.96Y-56.88
X124.36Y-97.88
X127.83Y-29.72
X132.94Y-36.19
X134.88Y-90.9
X140.65Y-29.94
T2
X42.12Y-47.18
X42.12Y-49.72
X46.67Y-50.72
X46.67Y-53.26
X67.04Y-42.88
X67.04Y-45.87
X74.66Y-42.88
X74.66Y-45.87
X79.36Y-61.72
X79.36Y-64.26
X87.59Y-53.5
X88.76Y-26.91
X88.76Y-34.53
X90.13Y-53.5
X92.02Y-57.37
X92.02Y-64.99
X94.65Y-57.34
X94.65Y-64.96
X96.74Y-46.64
X96.74Y-49.18
X96.785Y-25.225
X96.785Y-32.845
X96.79Y-36.61
X96.79Y-39.15
X99.73Y-62.39
X99.73Y-64.93
X112.58Y-27.1
X115.12Y-27.1
X116.77Y-48.64
X116.77Y-56.26
X120.21Y-26.78
X120.21Y-34.4
X122.78Y-26.84
X122.78Y-29.38
X122.78Y-33.07
X122.78Y-40.69
X123.14Y-44.82
X125.31Y-26.87
X125.31Y-29.41
X127.31Y-48.73
X127.31Y-56.35
X130.45Y-26.77
X130.45Y-29.31
X130.63Y-52.68
X130.63Y-55.22
X130.76Y-44.82
X132.9Y-26.84
X132.9Y-29.38
X132.94Y-31.99
X135.48Y-31.99
T3
X99.61Y-34.1
X99.61Y-39.1
X99.63Y-46.64
X99.63Y-51.64
X113.23Y-33.94
X113.23Y-38.94
X113.73Y-46.61
X113.73Y-51.61
X126.48Y-34.56
X126.48Y-39.56
X135.49Y-34.93
X135.49Y-39.93
T4
X37.07Y-32.4
X39.57Y-39.8
X42.07Y-32.4
X42.07Y-39.8
X45.17Y-32.4
X46.67Y-39.6
X49.17Y-39.6
X50.17Y-32.4
X69.41Y-53.5
X69.66Y-35.68
X74.3Y-60.3
X74.3Y-62.84
X74.3Y-65.38
X74.41Y-53.5
X74.66Y-35.68
X77.39Y-35.69
X77.39Y-38.23
X77.39Y-40.77
X77.39Y-43.31
X77.39Y-45.85
X77.39Y-48.39
X77.39Y-50.93
X77.39Y-53.47
X85.01Y-35.69
X85.01Y-38.23
X85.01Y-40.77
X85.01Y-43.31
X85.01Y-45.85
X85.01Y-48.39
X85.01Y-50.93
X85.01Y-53.47
X94.37Y-42.77
X99.37Y-42.77
X102.67Y-36.46
X102.67Y-39.0
X102.67Y-41.54
X102.67Y-44.08
X102.67Y-46.62
X102.67Y-49.16
X102.67Y-51.7
X104.47Y-62.0
X104.47Y-64.54
X104.47Y-67.08
X110.29Y-36.46
X110.29Y-39.0
X110.29Y-41.54
X110.29Y-44.08
X110.29Y-46.62
X110.29Y-49.16
X110.29Y-51.7
X113.12Y-43.33
X114.18Y-60.67
X116.72Y-60.67
X118.12Y-43.33
X119.26Y-60.67
X124.66Y-60.59
X127.2Y-60.59
X129.74Y-60.59
X134.87Y-44.38
X134.87Y-46.92
X134.87Y-49.46
X134.93Y-54.88
X134.93Y-57.42
X134.93Y-59.96
T5
X38.8Y-104.44
X38.8Y-106.98
X138.87Y-104.48
X138.87Y-107.02
T6
X45.44Y-23.72
X47.5Y-62.93
X47.5Y-65.47
X50.04Y-62.93
X50.04Y-65.47
X51.13Y-23.64
X51.14Y-83.61
X52.58Y-62.93
X52.58Y-65.47
X53.67Y-23.64
X53.68Y-83.61
X55.12Y-62.93
X55.12Y-65.47
X56.21Y-23.64
X56.22Y-83.61
X57.66Y-62.93
X57.66Y-65.47
X60.2Y-62.93
X60.2Y-65.47
X61.64Y-23.852
X62.74Y-62.93
X62.74Y-65.47
X65.28Y-62.93
X65.28Y-65.47
X66.99Y-23.782
X70.24Y-98.3
X70.25Y-113.4
X70.28Y-83.23
X72.74Y-98.3
X72.75Y-113.4
X72.78Y-83.23
X73.18Y-68.19
X75.24Y-98.3
X75.25Y-113.4
X75.28Y-83.23
X79.39Y-68.09
X79.4Y-128.04
X81.93Y-68.09
X81.94Y-128.04
X84.47Y-68.09
X84.48Y-128.04
X87.01Y-68.09
X87.02Y-128.04
X89.55Y-68.09
X89.56Y-128.04
X92.09Y-68.09
X92.1Y-128.04
X94.63Y-68.09
X94.64Y-128.04
X97.17Y-68.09
X97.18Y-128.04
X99.71Y-68.09
X99.72Y-128.04
X102.41Y-98.31
X102.41Y-113.345
X102.42Y-83.3
X104.91Y-98.31
X104.91Y-113.345
X104.92Y-83.3
X107.21Y-68.32
X107.41Y-98.31
X107.41Y-113.345
X107.42Y-83.3
X108.36Y-23.66
X115.12Y-83.6
X115.13Y-23.64
X117.66Y-83.6
X117.67Y-23.64
X120.2Y-83.6
X120.21Y-23.64
X122.74Y-83.6
X122.75Y-23.64
X125.28Y-83.6
X125.29Y-23.64
X127.82Y-83.6
X127.83Y-23.64
X130.36Y-83.6
X130.37Y-23.64
X132.9Y-83.6
X132.91Y-23.64
X140.65Y-34.77
T7
X39.07Y-46.04
X39.07Y-56.2
X49.67Y-45.44
X49.67Y-55.6
T8
X59.36Y-105.78
X59.36Y-120.85
X59.37Y-90.76
X131.28Y-105.77
X131.28Y-120.82
X131.29Y-90.84
T9
X56.26Y-105.78
X56.26Y-120.85
X56.27Y-90.76
X128.18Y-105.77
X128.18Y-120.82
X128.19Y-90.84
T10
X47.96Y-105.78
X47.96Y-120.85
X47.97Y-90.76
X119.88Y-105.77
X119.88Y-120.82
X119.89Y-90.84
T7
X68.34Y-105.8G85X67.64Y-105.8
G05
X68.35Y-120.9G85X67.65Y-120.9
G05
X68.38Y-90.73G85X67.68Y-90.73
G05
X77.84Y-105.8G85X77.14Y-105.8
G05
X77.85Y-120.9G85X77.15Y-120.9
G05
X77.88Y-90.73G85X77.18Y-90.73
G05
X100.51Y-105.81G85X99.81Y-105.81
G05
X100.51Y-120.845G85X99.81Y-120.845
G05
X100.52Y-90.8G85X99.82Y-90.8
G05
X110.01Y-105.81G85X109.31Y-105.81
G05
X110.01Y-120.845G85X109.31Y-120.845
G05
X110.02Y-90.8G85X109.32Y-90.8
G05
M30
