M48
; DRILL file KiCad 10.0.1 date 2026-06-17T14:58:16
; FORMAT={-:-/ absolute / metric / decimal}
; #@! TF.CreationDate,2026-06-17T14:58:16-07:00
; #@! TF.GenerationSoftware,Kicad,Pcbnew,10.0.1
; #@! TF.FileFunction,Plated,1,2,PTH
FMAT,2
METRIC
; #@! TA.AperFunction,Plated,PTH,ViaDrill
T1C0.300
; #@! TA.AperFunction,Plated,PTH,ComponentDrill
T2C0.700
; #@! TA.AperFunction,Plated,PTH,ComponentDrill
T3C0.750
; #@! TA.AperFunction,Plated,PTH,ComponentDrill
T4C0.800
; #@! TA.AperFunction,Plated,PTH,ComponentDrill
T5C0.900
; #@! TA.AperFunction,Plated,PTH,ComponentDrill
T6C1.000
; #@! TA.AperFunction,Plated,PTH,ComponentDrill
T7C1.100
; #@! TA.AperFunction,Plated,PTH,ComponentDrill
T8C1.220
; #@! TA.AperFunction,Plated,PTH,ComponentDrill
T9C1.420
; #@! TA.AperFunction,Plated,PTH,ComponentDrill
T10C1.430
%
G90
G05
T1
X28.07Y-62.3
X28.14Y-103.93
X28.21Y-114.63
X28.66Y-72.2
X34.08Y-45.81
X34.3Y-32.99
X36.76Y-118.08
X37.41Y-67.37
X40.55Y-40.7
X43.43Y-98.98
X48.012Y-85.66
X48.44Y-68.4
X49.67Y-78.6
X53.25Y-85.59
X53.28Y-66.29
X55.26Y-85.69
X58.09Y-78.71
X59.96Y-121.57
X60.56Y-132.17
X61.07Y-93.01
X61.08Y-84.96
X61.24Y-51.68
X62.87Y-101.63
X64.49Y-134.97
X69.6Y-59.46
X72.55Y-97.0
X72.78Y-71.23
X87.95Y-84.85
X87.97Y-126.72
X90.83Y-92.32
X90.87Y-80.62
X95.26Y-38.76
X98.36Y-56.9
X100.82Y-60.89
X102.24Y-49.28
X102.64Y-91.67
X102.72Y-114.49
X102.75Y-123.8
X103.6Y-81.6
X121.65Y-84.9
X127.81Y-81.54
T2
X29.585Y-76.855
X31.13Y-43.19
X31.14Y-53.43
X31.2Y-40.74
X31.2Y-50.86
X31.23Y-48.33
X31.27Y-84.88
X31.46Y-58.52
X31.46Y-61.06
X33.67Y-43.19
X33.74Y-40.74
X33.74Y-50.86
X33.77Y-48.33
X36.35Y-38.16
X36.35Y-40.7
X37.205Y-76.855
X37.43Y-50.86
X38.76Y-53.43
X38.89Y-84.88
X40.97Y-76.85
X43.51Y-76.85
X45.05Y-50.86
X47.24Y-98.98
X47.24Y-106.6
X49.18Y-42.88
X49.18Y-50.5
X50.23Y-98.98
X50.23Y-106.6
X51.0Y-76.9
X51.54Y-131.52
X53.0Y-56.87
X53.09Y-46.33
X53.54Y-76.9
X54.08Y-131.52
X55.08Y-126.97
X57.04Y-43.01
X57.62Y-126.97
X57.86Y-83.51
X57.86Y-86.05
X59.58Y-43.01
X60.62Y-56.87
X60.71Y-46.33
X61.7Y-78.99
X61.73Y-81.62
X66.08Y-94.28
X66.75Y-73.91
X68.62Y-94.28
X69.29Y-73.91
X69.32Y-78.99
X69.35Y-81.62
T3
X38.3Y-60.41
X38.46Y-74.03
X38.92Y-47.16
X39.29Y-38.15
X43.3Y-60.41
X43.46Y-74.03
X43.92Y-47.16
X44.29Y-38.15
X50.97Y-59.91
X51.0Y-74.01
X55.97Y-59.91
X56.0Y-74.01
T4
X36.76Y-123.47
X36.76Y-128.47
X36.76Y-131.57
X36.76Y-136.57
X40.04Y-98.98
X40.04Y-103.98
X40.05Y-88.63
X40.05Y-96.25
X40.82Y-63.35
X40.82Y-70.97
X42.59Y-88.63
X42.59Y-96.25
X43.36Y-63.35
X43.36Y-70.97
X43.96Y-124.47
X43.96Y-126.97
X44.16Y-131.57
X44.16Y-134.07
X45.13Y-88.63
X45.13Y-96.25
X45.9Y-63.35
X45.9Y-70.97
X47.13Y-74.27
X47.13Y-79.27
X47.67Y-88.63
X47.67Y-96.25
X47.69Y-55.52
X47.69Y-60.52
X48.44Y-63.35
X48.44Y-70.97
X48.74Y-38.77
X50.21Y-88.63
X50.21Y-96.25
X50.98Y-63.35
X50.98Y-70.97
X51.28Y-38.77
X52.75Y-88.63
X52.75Y-96.25
X53.52Y-63.35
X53.52Y-70.97
X53.82Y-38.77
X55.29Y-88.63
X55.29Y-96.25
X56.06Y-63.35
X56.06Y-70.97
X57.83Y-88.63
X57.83Y-96.25
X57.86Y-99.23
X57.86Y-104.23
X59.24Y-38.71
X61.78Y-38.71
X64.32Y-38.71
X64.66Y-99.34
X64.95Y-43.9
X64.95Y-46.44
X64.95Y-48.98
X65.03Y-54.38
X65.03Y-56.92
X65.03Y-59.46
X66.36Y-69.17
X67.2Y-99.34
X68.9Y-69.17
X69.74Y-99.34
X71.44Y-69.17
T5
X108.8Y-134.84
X108.84Y-34.77
X111.34Y-134.84
X111.38Y-34.77
T6
X28.0Y-40.73
X28.0Y-43.27
X28.0Y-45.81
X28.0Y-48.35
X28.0Y-50.89
X28.0Y-53.43
X28.0Y-55.97
X28.0Y-58.51
X28.0Y-117.43
X28.0Y-119.97
X28.0Y-122.51
X28.02Y-65.28
X28.08Y-128.2
X28.142Y-106.65
X28.212Y-112.0
X39.13Y-32.99
X67.29Y-108.36
X67.29Y-110.9
X67.29Y-113.44
X67.29Y-115.98
X67.29Y-118.52
X67.29Y-121.06
X67.29Y-123.6
X67.29Y-126.14
X69.83Y-108.36
X69.83Y-110.9
X69.83Y-113.44
X69.83Y-115.98
X69.83Y-118.52
X69.83Y-121.06
X69.83Y-123.6
X69.83Y-126.14
X72.45Y-73.93
X72.45Y-76.47
X72.45Y-79.01
X72.45Y-81.55
X72.45Y-84.09
X72.45Y-86.63
X72.45Y-89.17
X72.45Y-91.71
X72.45Y-94.25
X72.55Y-100.46
X72.68Y-66.43
X87.59Y-98.36
X87.59Y-100.86
X87.59Y-103.36
X87.66Y-66.22
X87.66Y-68.72
X87.66Y-71.22
X87.96Y-40.74
X87.96Y-43.28
X87.96Y-45.82
X87.96Y-48.36
X87.96Y-50.9
X87.96Y-53.44
X87.96Y-55.98
X87.96Y-58.52
X87.97Y-117.42
X87.97Y-119.96
X87.97Y-122.5
X102.66Y-98.4
X102.66Y-100.9
X102.66Y-103.4
X102.67Y-66.23
X102.67Y-68.73
X102.67Y-71.23
X117.705Y-66.23
X117.705Y-68.73
X117.705Y-71.23
X117.76Y-98.39
X117.76Y-100.89
X117.76Y-103.39
X132.4Y-73.92
X132.4Y-76.46
X132.4Y-79.0
X132.4Y-81.54
X132.4Y-84.08
X132.4Y-86.62
X132.4Y-89.16
X132.4Y-91.7
X132.4Y-94.24
T7
X49.8Y-123.97
X50.4Y-134.57
X59.96Y-123.97
X60.56Y-134.57
T8
X95.12Y-114.27
X95.2Y-42.35
X110.13Y-42.36
X110.14Y-114.28
X125.18Y-42.36
X125.21Y-114.28
T9
X95.12Y-117.37
X95.2Y-45.45
X110.13Y-45.46
X110.14Y-117.38
X125.18Y-45.46
X125.21Y-117.38
T10
X95.12Y-125.67
X95.2Y-53.75
X110.13Y-53.76
X110.14Y-125.68
X125.18Y-53.76
X125.21Y-125.68
T7
X95.09Y-95.76G85X95.09Y-96.46
G05
X95.09Y-105.26G85X95.09Y-105.96
G05
X95.16Y-63.62G85X95.16Y-64.32
G05
X95.16Y-73.12G85X95.16Y-73.82
G05
X110.16Y-95.8G85X110.16Y-96.5
G05
X110.16Y-105.3G85X110.16Y-106.0
G05
X110.17Y-63.63G85X110.17Y-64.33
G05
X110.17Y-73.13G85X110.17Y-73.83
G05
X125.205Y-63.63G85X125.205Y-64.33
G05
X125.205Y-73.13G85X125.205Y-73.83
G05
X125.26Y-95.79G85X125.26Y-96.49
G05
X125.26Y-105.29G85X125.26Y-105.99
G05
M30
