<?xml version="1.0" encoding="UTF-8" standalone="no"?>
<svg
   version="1.1"
   width="297.0022mm"
   height="210.0072mm"
   viewBox="0.0000 0.0000 297.0022 210.0072"
   id="svg217"
   sodipodi:docname="VCA 1-control-mask.svg"
   inkscape:version="1.3.2 (091e20e, 2023-11-25)"
   xmlns:inkscape="http://www.inkscape.org/namespaces/inkscape"
   xmlns:sodipodi="http://sodipodi.sourceforge.net/DTD/sodipodi-0.dtd"
   xmlns="http://www.w3.org/2000/svg"
   xmlns:svg="http://www.w3.org/2000/svg">
  <defs
     id="defs217" />
  <sodipodi:namedview
     id="namedview217"
     pagecolor="#ffffff"
     bordercolor="#000000"
     borderopacity="0.25"
     inkscape:showpageshadow="2"
     inkscape:pageopacity="0.0"
     inkscape:pagecheckerboard="0"
     inkscape:deskcolor="#d1d1d1"
     inkscape:document-units="mm"
     inkscape:zoom="0.50397936"
     inkscape:cx="514.90204"
     inkscape:cy="381.96009"
     inkscape:window-width="1312"
     inkscape:window-height="846"
     inkscape:window-x="0"
     inkscape:window-y="34"
     inkscape:window-maximized="0"
     inkscape:current-layer="svg217" />
  <title
     id="title1">SVG Image created as VCA 1-B_Mask.svg date 2026-07-01T08:56:07 </title>
  <desc
     id="desc1">Image generated by PCBNEW </desc>
  <g
     style="fill:#000000; fill-opacity:1.0000;stroke:#000000; stroke-opacity:1.0000; stroke-linecap:round; stroke-linejoin:round;"
     transform="translate(0 0) scale(1 1)"
     id="g1" />
  <g
     id="g218"
     transform="translate(-110.45673,16.723877)"
     style="fill:#000000;fill-opacity:1">
    <path
       style="fill:#000000;fill-opacity:1;fill-rule:evenodd;stroke:none"
       d="m 170.3072,43.985 v 1.83 h 1.93 v -1.83 z"
       id="path9" />
    <circle
       cx="171.2722"
       cy="56.299999"
       r="1.0650001"
       id="circle10"
       style="fill:#000000;fill-opacity:1;stroke:none" />
    <circle
       cx="171.2722"
       cy="48"
       r="1.0650001"
       id="circle11"
       style="fill:#000000;fill-opacity:1;stroke:none" />
    <circle
       cx="165.8922"
       cy="137.41"
       r="1.35"
       id="circle15"
       style="fill:#000000;fill-opacity:1;stroke:none" />
    <path
       style="fill:#000000;fill-opacity:1;fill-rule:evenodd;stroke:none"
       d="m 194.6922,101.84 v -1.8 h -1.8 v 1.8 z"
       id="path29" />
    <circle
       cx="193.79221"
       cy="103.44"
       r="0.89999998"
       id="circle30"
       style="fill:#000000;fill-opacity:1;stroke:none" />
    <circle
       cx="193.79221"
       cy="105.94"
       r="0.89999998"
       id="circle31"
       style="fill:#000000;fill-opacity:1;stroke:none" />
    <path
       style="fill:#000000;fill-opacity:1;fill-rule:evenodd;stroke:none"
       d="m 187.2922,97.69 -0.0114,-0.1063 -0.0498,-0.1333 -0.0852,-0.114 -0.114,-0.0852 -0.1333,-0.0498 -0.1063,-0.0114 h -1 l -0.1063,0.0114 -0.1333,0.0498 -0.114,0.0852 -0.0852,0.114 -0.0498,0.1333 -0.0114,0.1063 v 2 l 0.0114,0.1063 0.0498,0.1333 0.0852,0.114 0.114,0.0852 0.1333,0.0498 0.1063,0.0114 h 1 l 0.1063,-0.0114 0.1333,-0.0498 0.114,-0.0852 0.0852,-0.114 0.0498,-0.1333 0.0114,-0.1063 z"
       id="path31" />
    <path
       style="fill:#000000;fill-opacity:1;fill-rule:evenodd;stroke:none"
       d="m 187.2922,107.19 -0.0114,-0.1063 -0.0498,-0.1333 -0.0852,-0.114 -0.114,-0.0852 -0.1333,-0.0498 -0.1063,-0.0114 h -1 l -0.1063,0.0114 -0.1333,0.0498 -0.114,0.0852 -0.0852,0.114 -0.0498,0.1333 -0.0114,0.1063 v 2 l 0.0114,0.1063 0.0498,0.1333 0.0852,0.114 0.114,0.0852 0.1333,0.0498 0.1063,0.0114 h 1 l 0.1063,-0.0114 0.1333,-0.0498 0.114,-0.0852 0.0852,-0.114 0.0498,-0.1333 0.0114,-0.1063 z"
       id="path32" />
    <path
       style="fill:#000000;fill-opacity:1;fill-rule:evenodd;stroke:none"
       d="M 209.7622,101.8 V 100 h -1.8 v 1.8 z"
       id="path65" />
    <circle
       cx="208.8622"
       cy="103.4"
       r="0.89999998"
       id="circle66"
       style="fill:#000000;fill-opacity:1;stroke:none" />
    <circle
       cx="208.8622"
       cy="105.9"
       r="0.89999998"
       id="circle67"
       style="fill:#000000;fill-opacity:1;stroke:none" />
    <path
       style="fill:#000000;fill-opacity:1;fill-rule:evenodd;stroke:none"
       d="m 202.3622,97.65 -0.0114,-0.1063 -0.0498,-0.1333 -0.0852,-0.114 -0.114,-0.0852 -0.1333,-0.0498 -0.1063,-0.0114 h -1 l -0.1063,0.0114 -0.1333,0.0498 -0.114,0.0852 -0.0852,0.114 -0.0498,0.1333 -0.0114,0.1063 v 2 l 0.0114,0.1063 0.0498,0.1333 0.0852,0.114 0.114,0.0852 0.1333,0.0498 0.1063,0.0114 h 1 l 0.1063,-0.0114 0.1333,-0.0498 0.114,-0.0852 0.0852,-0.114 0.0498,-0.1333 0.0114,-0.1063 z"
       id="path67" />
    <path
       style="fill:#000000;fill-opacity:1;fill-rule:evenodd;stroke:none"
       d="m 202.3622,107.15 -0.0114,-0.1063 -0.0498,-0.1333 -0.0852,-0.114 -0.114,-0.0852 -0.1333,-0.0498 -0.1063,-0.0114 h -1 l -0.1063,0.0114 -0.1333,0.0498 -0.114,0.0852 -0.0852,0.114 -0.0498,0.1333 -0.0114,0.1063 v 2 l 0.0114,0.1063 0.0498,0.1333 0.0852,0.114 0.114,0.0852 0.1333,0.0498 0.1063,0.0114 h 1 l 0.1063,-0.0114 0.1333,-0.0498 0.114,-0.0852 0.0852,-0.114 0.0498,-0.1333 0.0114,-0.1063 z"
       id="path68" />
    <path
       style="fill:#000000;fill-opacity:1;fill-rule:evenodd;stroke:none"
       d="m 185.3572,43.985 v 1.83 h 1.93 v -1.83 z"
       id="path69" />
    <circle
       cx="186.3222"
       cy="56.299999"
       r="1.0650001"
       id="circle69"
       style="fill:#000000;fill-opacity:1;stroke:none" />
    <circle
       cx="186.3222"
       cy="48"
       r="1.0650001"
       id="circle70"
       style="fill:#000000;fill-opacity:1;stroke:none" />
    <circle
       cx="165.8922"
       cy="37.23"
       r="1.35"
       id="circle72"
       style="fill:#000000;fill-opacity:1;stroke:none" />
    <circle
       cx="206.73219"
       cy="37.209999"
       r="1.35"
       id="circle73"
       style="fill:#000000;fill-opacity:1;stroke:none" />
    <path
       style="fill:#000000;fill-opacity:1;fill-rule:evenodd;stroke:none"
       d="m 200.3672,115.895 v 1.83 h 1.93 v -1.83 z"
       id="path75" />
    <circle
       cx="201.3322"
       cy="128.21001"
       r="1.0650001"
       id="circle76"
       style="fill:#000000;fill-opacity:1;stroke:none" />
    <circle
       cx="201.3322"
       cy="119.91"
       r="1.0650001"
       id="circle77"
       style="fill:#000000;fill-opacity:1;stroke:none" />
    <path
       style="fill:#000000;fill-opacity:1;fill-rule:evenodd;stroke:none"
       d="m 200.2872,43.975 v 1.83 h 1.93 v -1.83 z"
       id="path81" />
    <circle
       cx="201.2522"
       cy="56.290001"
       r="1.0650001"
       id="circle82"
       style="fill:#000000;fill-opacity:1;stroke:none" />
    <circle
       cx="201.2522"
       cy="47.990002"
       r="1.0650001"
       id="circle83"
       style="fill:#000000;fill-opacity:1;stroke:none" />
    <path
       style="fill:#000000;fill-opacity:1;fill-rule:evenodd;stroke:none"
       d="m 179.6472,69.67 v -1.8 h -1.8 v 1.8 z"
       id="path98" />
    <circle
       cx="178.74719"
       cy="71.269997"
       r="0.89999998"
       id="circle99"
       style="fill:#000000;fill-opacity:1;stroke:none" />
    <circle
       cx="178.74719"
       cy="73.769997"
       r="0.89999998"
       id="circle100"
       style="fill:#000000;fill-opacity:1;stroke:none" />
    <path
       style="fill:#000000;fill-opacity:1;fill-rule:evenodd;stroke:none"
       d="m 172.2472,65.52 -0.0114,-0.1063 -0.0498,-0.1333 -0.0852,-0.114 -0.114,-0.0852 -0.1333,-0.0498 -0.1063,-0.0114 h -1 l -0.1063,0.0114 -0.1333,0.0498 -0.114,0.0852 -0.0852,0.114 -0.0498,0.1333 -0.0114,0.1063 v 2 l 0.0114,0.1063 0.0498,0.1333 0.0852,0.114 0.114,0.0852 0.1333,0.0498 0.1063,0.0114 h 1 l 0.1063,-0.0114 0.1333,-0.0498 0.114,-0.0852 0.0852,-0.114 0.0498,-0.1333 0.0114,-0.1063 z"
       id="path100" />
    <path
       style="fill:#000000;fill-opacity:1;fill-rule:evenodd;stroke:none"
       d="m 172.2472,75.02 -0.0114,-0.1063 -0.0498,-0.1333 -0.0852,-0.114 -0.114,-0.0852 -0.1333,-0.0498 -0.1063,-0.0114 h -1 l -0.1063,0.0114 -0.1333,0.0498 -0.114,0.0852 -0.0852,0.114 -0.0498,0.1333 -0.0114,0.1063 v 2 l 0.0114,0.1063 0.0498,0.1333 0.0852,0.114 0.114,0.0852 0.1333,0.0498 0.1063,0.0114 h 1 l 0.1063,-0.0114 0.1333,-0.0498 0.114,-0.0852 0.0852,-0.114 0.0498,-0.1333 0.0114,-0.1063 z"
       id="path101" />
    <path
       style="fill:#000000;fill-opacity:1;fill-rule:evenodd;stroke:none"
       d="m 185.3472,115.905 v 1.83 h 1.93 v -1.83 z"
       id="path105" />
    <circle
       cx="186.31219"
       cy="128.22"
       r="1.0650001"
       id="circle106"
       style="fill:#000000;fill-opacity:1;stroke:none" />
    <circle
       cx="186.31219"
       cy="119.92"
       r="1.0650001"
       id="circle107"
       style="fill:#000000;fill-opacity:1;stroke:none" />
    <path
       style="fill:#000000;fill-opacity:1;fill-rule:evenodd;stroke:none"
       d="m 179.5922,101.83 v -1.8 h -1.8 v 1.8 z"
       id="path111" />
    <circle
       cx="178.6922"
       cy="103.43"
       r="0.89999998"
       id="circle112"
       style="fill:#000000;fill-opacity:1;stroke:none" />
    <circle
       cx="178.6922"
       cy="105.93"
       r="0.89999998"
       id="circle113"
       style="fill:#000000;fill-opacity:1;stroke:none" />
    <path
       style="fill:#000000;fill-opacity:1;fill-rule:evenodd;stroke:none"
       d="m 172.1922,97.68 -0.0114,-0.1063 -0.0498,-0.1333 -0.0852,-0.114 -0.114,-0.0852 -0.1333,-0.0498 -0.1063,-0.0114 h -1 l -0.1063,0.0114 -0.1333,0.0498 -0.114,0.0852 -0.0852,0.114 -0.0498,0.1333 -0.0114,0.1063 v 2 l 0.0114,0.1063 0.0498,0.1333 0.0852,0.114 0.114,0.0852 0.1333,0.0498 0.1063,0.0114 h 1 l 0.1063,-0.0114 0.1333,-0.0498 0.114,-0.0852 0.0852,-0.114 0.0498,-0.1333 0.0114,-0.1063 z"
       id="path113" />
    <path
       style="fill:#000000;fill-opacity:1;fill-rule:evenodd;stroke:none"
       d="m 172.1922,107.18 -0.0114,-0.1063 -0.0498,-0.1333 -0.0852,-0.114 -0.114,-0.0852 -0.1333,-0.0498 -0.1063,-0.0114 h -1 l -0.1063,0.0114 -0.1333,0.0498 -0.114,0.0852 -0.0852,0.114 -0.0498,0.1333 -0.0114,0.1063 v 2 l 0.0114,0.1063 0.0498,0.1333 0.0852,0.114 0.114,0.0852 0.1333,0.0498 0.1063,0.0114 h 1 l 0.1063,-0.0114 0.1333,-0.0498 0.114,-0.0852 0.0852,-0.114 0.0498,-0.1333 0.0114,-0.1063 z"
       id="path114" />
    <path
       style="fill:#000000;fill-opacity:1;fill-rule:evenodd;stroke:none"
       d="m 188.5122,38.21 v -1.8 h -1.8 v 1.8 z"
       id="path122" />
    <circle
       cx="185.0722"
       cy="37.310001"
       r="0.89999998"
       id="circle123"
       style="fill:#000000;fill-opacity:1;stroke:none" />
    <path
       style="fill:#000000;fill-opacity:1;fill-rule:evenodd;stroke:none"
       d="m 209.6922,69.66 v -1.8 h -1.8 v 1.8 z"
       id="path126" />
    <circle
       cx="208.79221"
       cy="71.260002"
       r="0.89999998"
       id="circle127"
       style="fill:#000000;fill-opacity:1;stroke:none" />
    <circle
       cx="208.79221"
       cy="73.760002"
       r="0.89999998"
       id="circle128"
       style="fill:#000000;fill-opacity:1;stroke:none" />
    <path
       style="fill:#000000;fill-opacity:1;fill-rule:evenodd;stroke:none"
       d="m 202.2922,65.51 -0.0114,-0.1063 -0.0498,-0.1333 -0.0852,-0.114 -0.114,-0.0852 -0.1333,-0.0498 -0.1063,-0.0114 h -1 l -0.1063,0.0114 -0.1333,0.0498 -0.114,0.0852 -0.0852,0.114 -0.0498,0.1333 -0.0114,0.1063 v 2 l 0.0114,0.1063 0.0498,0.1333 0.0852,0.114 0.114,0.0852 0.1333,0.0498 0.1063,0.0114 h 1 l 0.1063,-0.0114 0.1333,-0.0498 0.114,-0.0852 0.0852,-0.114 0.0498,-0.1333 0.0114,-0.1063 z"
       id="path128" />
    <path
       style="fill:#000000;fill-opacity:1;fill-rule:evenodd;stroke:none"
       d="m 202.2922,75.01 -0.0114,-0.1063 -0.0498,-0.1333 -0.0852,-0.114 -0.114,-0.0852 -0.1333,-0.0498 -0.1063,-0.0114 h -1 l -0.1063,0.0114 -0.1333,0.0498 -0.114,0.0852 -0.0852,0.114 -0.0498,0.1333 -0.0114,0.1063 v 2 l 0.0114,0.1063 0.0498,0.1333 0.0852,0.114 0.114,0.0852 0.1333,0.0498 0.1063,0.0114 h 1 l 0.1063,-0.0114 0.1333,-0.0498 0.114,-0.0852 0.0852,-0.114 0.0498,-0.1333 0.0114,-0.1063 z"
       id="path129" />
    <path
       style="fill:#000000;fill-opacity:1;fill-rule:evenodd;stroke:none"
       d="m 194.6822,69.67 v -1.8 h -1.8 v 1.8 z"
       id="path130" />
    <circle
       cx="193.7822"
       cy="71.269997"
       r="0.89999998"
       id="circle131"
       style="fill:#000000;fill-opacity:1;stroke:none" />
    <circle
       cx="193.7822"
       cy="73.769997"
       r="0.89999998"
       id="circle132"
       style="fill:#000000;fill-opacity:1;stroke:none" />
    <path
       style="fill:#000000;fill-opacity:1;fill-rule:evenodd;stroke:none"
       d="m 187.2822,65.52 -0.0114,-0.1063 -0.0498,-0.1333 -0.0852,-0.114 -0.114,-0.0852 -0.1333,-0.0498 -0.1063,-0.0114 h -1 l -0.1063,0.0114 -0.1333,0.0498 -0.114,0.0852 -0.0852,0.114 -0.0498,0.1333 -0.0114,0.1063 v 2 l 0.0114,0.1063 0.0498,0.1333 0.0852,0.114 0.114,0.0852 0.1333,0.0498 0.1063,0.0114 h 1 l 0.1063,-0.0114 0.1333,-0.0498 0.114,-0.0852 0.0852,-0.114 0.0498,-0.1333 0.0114,-0.1063 z"
       id="path132" />
    <path
       style="fill:#000000;fill-opacity:1;fill-rule:evenodd;stroke:none"
       d="m 187.2822,75.02 -0.0114,-0.1063 -0.0498,-0.1333 -0.0852,-0.114 -0.114,-0.0852 -0.1333,-0.0498 -0.1063,-0.0114 h -1 l -0.1063,0.0114 -0.1333,0.0498 -0.114,0.0852 -0.0852,0.114 -0.0498,0.1333 -0.0114,0.1063 v 2 l 0.0114,0.1063 0.0498,0.1333 0.0852,0.114 0.114,0.0852 0.1333,0.0498 0.1063,0.0114 h 1 l 0.1063,-0.0114 0.1333,-0.0498 0.114,-0.0852 0.0852,-0.114 0.0498,-0.1333 0.0114,-0.1063 z"
       id="path133" />
    <circle
       cx="206.73219"
       cy="137.41"
       r="1.35"
       id="circle137"
       style="fill:#000000;fill-opacity:1;stroke:none" />
    <path
       style="fill:#000000;fill-opacity:1;fill-rule:evenodd;stroke:none"
       d="m 170.2772,115.905 v 1.83 h 1.93 v -1.83 z"
       id="path137" />
    <circle
       cx="171.2422"
       cy="128.22"
       r="1.0650001"
       id="circle138"
       style="fill:#000000;fill-opacity:1;stroke:none" />
    <circle
       cx="171.2422"
       cy="119.92"
       r="1.0650001"
       id="circle139"
       style="fill:#000000;fill-opacity:1;stroke:none" />
    <path
       style="fill:#000000;fill-opacity:1;fill-rule:evenodd;stroke:none"
       d="m 188.5522,138.28 v -1.8 h -1.8 v 1.8 z"
       id="path176" />
    <circle
       cx="185.1122"
       cy="137.38"
       r="0.89999998"
       id="circle177"
       style="fill:#000000;fill-opacity:1;stroke:none" />
    <path
       style="fill:#000000;fill-opacity:1;fill-rule:evenodd;stroke:none"
       d="m 207.6422,42.43 v 1.7 h 1.7 v -1.7 z"
       id="path179" />
    <circle
       cx="208.4922"
       cy="45.82"
       r="0.85000002"
       id="circle180"
       style="fill:#000000;fill-opacity:1;stroke:none" />
    <circle
       cx="208.4922"
       cy="48.360001"
       r="0.85000002"
       id="circle181"
       style="fill:#000000;fill-opacity:1;stroke:none" />
    <circle
       cx="208.4922"
       cy="50.900002"
       r="0.85000002"
       id="circle182"
       style="fill:#000000;fill-opacity:1;stroke:none" />
    <circle
       cx="208.4922"
       cy="53.439999"
       r="0.85000002"
       id="circle183"
       style="fill:#000000;fill-opacity:1;stroke:none" />
    <circle
       cx="208.4922"
       cy="55.98"
       r="0.85000002"
       id="circle184"
       style="fill:#000000;fill-opacity:1;stroke:none" />
    <circle
       cx="208.4922"
       cy="58.52"
       r="0.85000002"
       id="circle185"
       style="fill:#000000;fill-opacity:1;stroke:none" />
    <circle
       cx="208.4922"
       cy="61.060001"
       r="0.85000002"
       id="circle186"
       style="fill:#000000;fill-opacity:1;stroke:none" />
    <path
       style="fill:#000000;fill-opacity:1;fill-rule:evenodd;stroke:none"
       d="m 207.6322,119.11 v 1.7 h 1.7 v -1.7 z"
       id="path202" />
    <circle
       cx="208.48219"
       cy="122.5"
       r="0.85000002"
       id="circle203"
       style="fill:#000000;fill-opacity:1;stroke:none" />
    <circle
       cx="208.48219"
       cy="125.04"
       r="0.85000002"
       id="circle204"
       style="fill:#000000;fill-opacity:1;stroke:none" />
    <path
       style="fill:#000000;fill-opacity:1;fill-rule:evenodd;stroke:none"
       d="m 163.2022,75.61 v 1.7 h 1.7 v -1.7 z"
       id="path204" />
    <circle
       cx="164.0522"
       cy="79"
       r="0.85000002"
       id="circle205"
       style="fill:#000000;fill-opacity:1;stroke:none" />
    <circle
       cx="164.0522"
       cy="81.540001"
       r="0.85000002"
       id="circle206"
       style="fill:#000000;fill-opacity:1;stroke:none" />
    <circle
       cx="164.0522"
       cy="84.080002"
       r="0.85000002"
       id="circle207"
       style="fill:#000000;fill-opacity:1;stroke:none" />
    <circle
       cx="164.0522"
       cy="86.620003"
       r="0.85000002"
       id="circle208"
       style="fill:#000000;fill-opacity:1;stroke:none" />
    <circle
       cx="164.0522"
       cy="89.160004"
       r="0.85000002"
       id="circle209"
       style="fill:#000000;fill-opacity:1;stroke:none" />
    <circle
       cx="164.0522"
       cy="91.699997"
       r="0.85000002"
       id="circle210"
       style="fill:#000000;fill-opacity:1;stroke:none" />
    <circle
       cx="164.0522"
       cy="94.239998"
       r="0.85000002"
       id="circle211"
       style="fill:#000000;fill-opacity:1;stroke:none" />
    <circle
       cx="164.0522"
       cy="96.779999"
       r="0.85000002"
       id="circle212"
       style="fill:#000000;fill-opacity:1;stroke:none" />
  </g>
  <g
     id="g218-8"
     transform="translate(95.273831,19.20676)"
     style="fill:#002700;fill-opacity:0.99000001">
    <path
       style="fill:#002700;fill-opacity:0.99000001;fill-rule:evenodd;stroke:none"
       d="m 126.695,43.985 v 1.83 h -1.93 v -1.83 z"
       id="path9-3" />
    <circle
       cx="125.73"
       cy="56.299999"
       r="1.0650001"
       id="circle10-9"
       style="fill:#002700;fill-opacity:0.99000001;stroke:none" />
    <circle
       cx="125.73"
       cy="48"
       r="1.0650001"
       id="circle11-0"
       style="fill:#002700;fill-opacity:0.99000001;stroke:none" />
    <circle
       cx="131.11"
       cy="137.41"
       r="1.35"
       id="circle15-5"
       style="fill:#002700;fill-opacity:0.99000001;stroke:none" />
    <path
       style="fill:#002700;fill-opacity:0.99000001;fill-rule:evenodd;stroke:none"
       d="m 102.31,101.84 v -1.8 h 1.8 v 1.8 z"
       id="path29-2" />
    <circle
       cx="103.21"
       cy="103.44"
       r="0.89999998"
       id="circle30-2"
       style="fill:#002700;fill-opacity:0.99000001;stroke:none" />
    <circle
       cx="103.21"
       cy="105.94"
       r="0.89999998"
       id="circle31-7"
       style="fill:#002700;fill-opacity:0.99000001;stroke:none" />
    <path
       style="fill:#002700;fill-opacity:0.99000001;fill-rule:evenodd;stroke:none"
       d="m 109.71,97.69 0.0114,-0.1063 0.0498,-0.1333 0.0852,-0.114 0.114,-0.0852 0.1333,-0.0498 0.1063,-0.0114 h 1 l 0.1063,0.0114 0.1333,0.0498 0.114,0.0852 0.0852,0.114 0.0498,0.1333 0.0114,0.1063 v 2 l -0.0114,0.1063 -0.0498,0.1333 -0.0852,0.114 -0.114,0.0852 -0.1333,0.0498 -0.1063,0.0114 h -1 l -0.1063,-0.0114 -0.1333,-0.0498 -0.114,-0.0852 -0.0852,-0.114 -0.0498,-0.1333 L 109.71,99.69 Z"
       id="path31-3" />
    <path
       style="fill:#002700;fill-opacity:0.99000001;fill-rule:evenodd;stroke:none"
       d="m 109.71,107.19 0.0114,-0.1063 0.0498,-0.1333 0.0852,-0.114 0.114,-0.0852 0.1333,-0.0498 0.1063,-0.0114 h 1 l 0.1063,0.0114 0.1333,0.0498 0.114,0.0852 0.0852,0.114 0.0498,0.1333 0.0114,0.1063 v 2 l -0.0114,0.1063 -0.0498,0.1333 -0.0852,0.114 -0.114,0.0852 -0.1333,0.0498 -0.1063,0.0114 h -1 l -0.1063,-0.0114 -0.1333,-0.0498 -0.114,-0.0852 -0.0852,-0.114 -0.0498,-0.1333 -0.0114,-0.1063 z"
       id="path32-7" />
    <path
       style="fill:#002700;fill-opacity:0.99000001;fill-rule:evenodd;stroke:none"
       d="M 87.24,101.8 V 100 h 1.8 v 1.8 z"
       id="path65-9" />
    <circle
       cx="88.139999"
       cy="103.4"
       r="0.89999998"
       id="circle66-0"
       style="fill:#002700;fill-opacity:0.99000001;stroke:none" />
    <circle
       cx="88.139999"
       cy="105.9"
       r="0.89999998"
       id="circle67-2"
       style="fill:#002700;fill-opacity:0.99000001;stroke:none" />
    <path
       style="fill:#002700;fill-opacity:0.99000001;fill-rule:evenodd;stroke:none"
       d="m 94.64,97.65 0.0114,-0.1063 0.0498,-0.1333 0.0852,-0.114 0.114,-0.0852 0.1333,-0.0498 L 95.14,97.15 h 1 l 0.1063,0.0114 0.1333,0.0498 0.114,0.0852 0.0852,0.114 0.0498,0.1333 0.0114,0.1063 v 2 l -0.0114,0.1063 -0.0498,0.1333 -0.0852,0.114 -0.114,0.0852 -0.1333,0.0498 -0.1063,0.0114 h -1 l -0.1063,-0.0114 -0.1333,-0.0498 -0.114,-0.0852 -0.0852,-0.114 L 94.6514,99.7563 94.64,99.65 Z"
       id="path67-3" />
    <path
       style="fill:#002700;fill-opacity:0.99000001;fill-rule:evenodd;stroke:none"
       d="m 94.64,107.15 0.0114,-0.1063 0.0498,-0.1333 0.0852,-0.114 0.114,-0.0852 0.1333,-0.0498 0.1063,-0.0114 h 1 l 0.1063,0.0114 0.1333,0.0498 0.114,0.0852 0.0852,0.114 0.0498,0.1333 0.0114,0.1063 v 2 l -0.0114,0.1063 -0.0498,0.1333 -0.0852,0.114 -0.114,0.0852 -0.1333,0.0498 -0.1063,0.0114 h -1 l -0.1063,-0.0114 -0.1333,-0.0498 -0.114,-0.0852 -0.0852,-0.114 -0.0498,-0.1333 L 94.64,109.15 Z"
       id="path68-9" />
    <path
       style="fill:#002700;fill-opacity:0.99000001;fill-rule:evenodd;stroke:none"
       d="m 111.645,43.985 v 1.83 h -1.93 v -1.83 z"
       id="path69-9" />
    <circle
       cx="110.68"
       cy="56.299999"
       r="1.0650001"
       id="circle69-7"
       style="fill:#002700;fill-opacity:0.99000001;stroke:none" />
    <circle
       cx="110.68"
       cy="48"
       r="1.0650001"
       id="circle70-0"
       style="fill:#002700;fill-opacity:0.99000001;stroke:none" />
    <circle
       cx="131.11"
       cy="37.23"
       r="1.35"
       id="circle72-3"
       style="fill:#002700;fill-opacity:0.99000001;stroke:none" />
    <circle
       cx="90.269997"
       cy="37.209999"
       r="1.35"
       id="circle73-9"
       style="fill:#002700;fill-opacity:0.99000001;stroke:none" />
    <path
       style="fill:#002700;fill-opacity:0.99000001;fill-rule:evenodd;stroke:none"
       d="m 96.635,115.895 v 1.83 h -1.93 v -1.83 z"
       id="path75-8" />
    <circle
       cx="95.669998"
       cy="128.21001"
       r="1.0650001"
       id="circle76-6"
       style="fill:#002700;fill-opacity:0.99000001;stroke:none" />
    <circle
       cx="95.669998"
       cy="119.91"
       r="1.0650001"
       id="circle77-5"
       style="fill:#002700;fill-opacity:0.99000001;stroke:none" />
    <path
       style="fill:#002700;fill-opacity:0.99000001;fill-rule:evenodd;stroke:none"
       d="m 96.715,43.975 v 1.83 h -1.93 v -1.83 z"
       id="path81-7" />
    <circle
       cx="95.75"
       cy="56.290001"
       r="1.0650001"
       id="circle82-6"
       style="fill:#002700;fill-opacity:0.99000001;stroke:none" />
    <circle
       cx="95.75"
       cy="47.990002"
       r="1.0650001"
       id="circle83-2"
       style="fill:#002700;fill-opacity:0.99000001;stroke:none" />
    <path
       style="fill:#002700;fill-opacity:0.99000001;fill-rule:evenodd;stroke:none"
       d="m 117.355,69.67 v -1.8 h 1.8 v 1.8 z"
       id="path98-7" />
    <circle
       cx="118.255"
       cy="71.269997"
       r="0.89999998"
       id="circle99-0"
       style="fill:#002700;fill-opacity:0.99000001;stroke:none" />
    <circle
       cx="118.255"
       cy="73.769997"
       r="0.89999998"
       id="circle100-3"
       style="fill:#002700;fill-opacity:0.99000001;stroke:none" />
    <path
       style="fill:#002700;fill-opacity:0.99000001;fill-rule:evenodd;stroke:none"
       d="m 124.755,65.52 0.0114,-0.1063 0.0498,-0.1333 0.0852,-0.114 0.114,-0.0852 0.1333,-0.0498 0.1063,-0.0114 h 1 l 0.1063,0.0114 0.1333,0.0498 0.114,0.0852 0.0852,0.114 0.0498,0.1333 0.0114,0.1063 v 2 l -0.0114,0.1063 -0.0498,0.1333 -0.0852,0.114 -0.114,0.0852 -0.1333,0.0498 -0.1063,0.0114 h -1 l -0.1063,-0.0114 -0.1333,-0.0498 -0.114,-0.0852 -0.0852,-0.114 -0.0498,-0.1333 -0.0114,-0.1063 z"
       id="path100-9" />
    <path
       style="fill:#002700;fill-opacity:0.99000001;fill-rule:evenodd;stroke:none"
       d="m 124.755,75.02 0.0114,-0.1063 0.0498,-0.1333 0.0852,-0.114 0.114,-0.0852 0.1333,-0.0498 0.1063,-0.0114 h 1 l 0.1063,0.0114 0.1333,0.0498 0.114,0.0852 0.0852,0.114 0.0498,0.1333 0.0114,0.1063 v 2 l -0.0114,0.1063 -0.0498,0.1333 -0.0852,0.114 -0.114,0.0852 -0.1333,0.0498 -0.1063,0.0114 h -1 l -0.1063,-0.0114 -0.1333,-0.0498 -0.114,-0.0852 -0.0852,-0.114 -0.0498,-0.1333 -0.0114,-0.1063 z"
       id="path101-9" />
    <path
       style="fill:#002700;fill-opacity:0.99000001;fill-rule:evenodd;stroke:none"
       d="m 111.655,115.905 v 1.83 h -1.93 v -1.83 z"
       id="path105-9" />
    <circle
       cx="110.69"
       cy="128.22"
       r="1.0650001"
       id="circle106-1"
       style="fill:#002700;fill-opacity:0.99000001;stroke:none" />
    <circle
       cx="110.69"
       cy="119.92"
       r="1.0650001"
       id="circle107-7"
       style="fill:#002700;fill-opacity:0.99000001;stroke:none" />
    <path
       style="fill:#002700;fill-opacity:0.99000001;fill-rule:evenodd;stroke:none"
       d="m 117.41,101.83 v -1.8 h 1.8 v 1.8 z"
       id="path111-2" />
    <circle
       cx="118.31"
       cy="103.43"
       r="0.89999998"
       id="circle112-3"
       style="fill:#002700;fill-opacity:0.99000001;stroke:none" />
    <circle
       cx="118.31"
       cy="105.93"
       r="0.89999998"
       id="circle113-6"
       style="fill:#002700;fill-opacity:0.99000001;stroke:none" />
    <path
       style="fill:#002700;fill-opacity:0.99000001;fill-rule:evenodd;stroke:none"
       d="m 124.81,97.68 0.0114,-0.1063 0.0498,-0.1333 0.0852,-0.114 0.114,-0.0852 0.1333,-0.0498 0.1063,-0.0114 h 1 l 0.1063,0.0114 0.1333,0.0498 0.114,0.0852 0.0852,0.114 0.0498,0.1333 0.0114,0.1063 v 2 l -0.0114,0.1063 -0.0498,0.1333 -0.0852,0.114 -0.114,0.0852 -0.1333,0.0498 -0.1063,0.0114 h -1 l -0.1063,-0.0114 -0.1333,-0.0498 -0.114,-0.0852 -0.0852,-0.114 -0.0498,-0.1333 L 124.81,99.68 Z"
       id="path113-5" />
    <path
       style="fill:#002700;fill-opacity:0.99000001;fill-rule:evenodd;stroke:none"
       d="m 124.81,107.18 0.0114,-0.1063 0.0498,-0.1333 0.0852,-0.114 0.114,-0.0852 0.1333,-0.0498 0.1063,-0.0114 h 1 l 0.1063,0.0114 0.1333,0.0498 0.114,0.0852 0.0852,0.114 0.0498,0.1333 0.0114,0.1063 v 2 l -0.0114,0.1063 -0.0498,0.1333 -0.0852,0.114 -0.114,0.0852 -0.1333,0.0498 -0.1063,0.0114 h -1 l -0.1063,-0.0114 -0.1333,-0.0498 -0.114,-0.0852 -0.0852,-0.114 -0.0498,-0.1333 -0.0114,-0.1063 z"
       id="path114-5" />
    <path
       style="fill:#002700;fill-opacity:0.99000001;fill-rule:evenodd;stroke:none"
       d="m 108.49,38.21 v -1.8 h 1.8 v 1.8 z"
       id="path122-8" />
    <circle
       cx="111.93"
       cy="37.310001"
       r="0.89999998"
       id="circle123-1"
       style="fill:#002700;fill-opacity:0.99000001;stroke:none" />
    <path
       style="fill:#002700;fill-opacity:0.99000001;fill-rule:evenodd;stroke:none"
       d="m 87.31,69.66 v -1.8 h 1.8 v 1.8 z"
       id="path126-4" />
    <circle
       cx="88.209999"
       cy="71.260002"
       r="0.89999998"
       id="circle127-7"
       style="fill:#002700;fill-opacity:0.99000001;stroke:none" />
    <circle
       cx="88.209999"
       cy="73.760002"
       r="0.89999998"
       id="circle128-1"
       style="fill:#002700;fill-opacity:0.99000001;stroke:none" />
    <path
       style="fill:#002700;fill-opacity:0.99000001;fill-rule:evenodd;stroke:none"
       d="m 94.71,65.51 0.0114,-0.1063 0.0498,-0.1333 0.0852,-0.114 0.114,-0.0852 0.1333,-0.0498 L 95.21,65.01 h 1 l 0.1063,0.0114 0.1333,0.0498 0.114,0.0852 0.0852,0.114 0.0498,0.1333 0.0114,0.1063 v 2 l -0.0114,0.1063 -0.0498,0.1333 -0.0852,0.114 -0.114,0.0852 -0.1333,0.0498 L 96.21,68.01 h -1 L 95.1037,67.9986 94.9704,67.9488 94.8564,67.8636 94.7712,67.7496 94.7214,67.6163 94.71,67.51 Z"
       id="path128-3" />
    <path
       style="fill:#002700;fill-opacity:0.99000001;fill-rule:evenodd;stroke:none"
       d="m 94.71,75.01 0.0114,-0.1063 0.0498,-0.1333 0.0852,-0.114 0.114,-0.0852 0.1333,-0.0498 L 95.21,74.51 h 1 l 0.1063,0.0114 0.1333,0.0498 0.114,0.0852 0.0852,0.114 0.0498,0.1333 0.0114,0.1063 v 2 l -0.0114,0.1063 -0.0498,0.1333 -0.0852,0.114 -0.114,0.0852 -0.1333,0.0498 L 96.21,77.51 h -1 L 95.1037,77.4986 94.9704,77.4488 94.8564,77.3636 94.7712,77.2496 94.7214,77.1163 94.71,77.01 Z"
       id="path129-8" />
    <path
       style="fill:#002700;fill-opacity:0.99000001;fill-rule:evenodd;stroke:none"
       d="m 102.32,69.67 v -1.8 h 1.8 v 1.8 z"
       id="path130-4" />
    <circle
       cx="103.22"
       cy="71.269997"
       r="0.89999998"
       id="circle131-8"
       style="fill:#002700;fill-opacity:0.99000001;stroke:none" />
    <circle
       cx="103.22"
       cy="73.769997"
       r="0.89999998"
       id="circle132-0"
       style="fill:#002700;fill-opacity:0.99000001;stroke:none" />
    <path
       style="fill:#002700;fill-opacity:0.99000001;fill-rule:evenodd;stroke:none"
       d="m 109.72,65.52 0.0114,-0.1063 0.0498,-0.1333 0.0852,-0.114 0.114,-0.0852 0.1333,-0.0498 0.1063,-0.0114 h 1 l 0.1063,0.0114 0.1333,0.0498 0.114,0.0852 0.0852,0.114 0.0498,0.1333 0.0114,0.1063 v 2 l -0.0114,0.1063 -0.0498,0.1333 -0.0852,0.114 -0.114,0.0852 -0.1333,0.0498 -0.1063,0.0114 h -1 l -0.1063,-0.0114 -0.1333,-0.0498 -0.114,-0.0852 -0.0852,-0.114 -0.0498,-0.1333 L 109.72,67.52 Z"
       id="path132-4" />
    <path
       style="fill:#002700;fill-opacity:0.99000001;fill-rule:evenodd;stroke:none"
       d="m 109.72,75.02 0.0114,-0.1063 0.0498,-0.1333 0.0852,-0.114 0.114,-0.0852 0.1333,-0.0498 0.1063,-0.0114 h 1 l 0.1063,0.0114 0.1333,0.0498 0.114,0.0852 0.0852,0.114 0.0498,0.1333 0.0114,0.1063 v 2 l -0.0114,0.1063 -0.0498,0.1333 -0.0852,0.114 -0.114,0.0852 -0.1333,0.0498 -0.1063,0.0114 h -1 l -0.1063,-0.0114 -0.1333,-0.0498 -0.114,-0.0852 -0.0852,-0.114 -0.0498,-0.1333 L 109.72,77.02 Z"
       id="path133-6" />
    <circle
       cx="90.269997"
       cy="137.41"
       r="1.35"
       id="circle137-0"
       style="fill:#002700;fill-opacity:0.99000001;stroke:none" />
    <path
       style="fill:#002700;fill-opacity:0.99000001;fill-rule:evenodd;stroke:none"
       d="m 126.725,115.905 v 1.83 h -1.93 v -1.83 z"
       id="path137-3" />
    <circle
       cx="125.76"
       cy="128.22"
       r="1.0650001"
       id="circle138-2"
       style="fill:#002700;fill-opacity:0.99000001;stroke:none" />
    <circle
       cx="125.76"
       cy="119.92"
       r="1.0650001"
       id="circle139-6"
       style="fill:#002700;fill-opacity:0.99000001;stroke:none" />
    <path
       style="fill:#002700;fill-opacity:0.99000001;fill-rule:evenodd;stroke:none"
       d="m 108.45,138.28 v -1.8 h 1.8 v 1.8 z"
       id="path176-9" />
    <circle
       cx="111.89"
       cy="137.38"
       r="0.89999998"
       id="circle177-4"
       style="fill:#002700;fill-opacity:0.99000001;stroke:none" />
    <path
       style="fill:#002700;fill-opacity:0.99000001;fill-rule:evenodd;stroke:none"
       d="m 89.36,42.43 v 1.7 h -1.7 v -1.7 z"
       id="path179-1" />
    <circle
       cx="88.510002"
       cy="45.82"
       r="0.85000002"
       id="circle180-3"
       style="fill:#002700;fill-opacity:0.99000001;stroke:none" />
    <circle
       cx="88.510002"
       cy="48.360001"
       r="0.85000002"
       id="circle181-7"
       style="fill:#002700;fill-opacity:0.99000001;stroke:none" />
    <circle
       cx="88.510002"
       cy="50.900002"
       r="0.85000002"
       id="circle182-8"
       style="fill:#002700;fill-opacity:0.99000001;stroke:none" />
    <circle
       cx="88.510002"
       cy="53.439999"
       r="0.85000002"
       id="circle183-8"
       style="fill:#002700;fill-opacity:0.99000001;stroke:none" />
    <circle
       cx="88.510002"
       cy="55.98"
       r="0.85000002"
       id="circle184-3"
       style="fill:#002700;fill-opacity:0.99000001;stroke:none" />
    <circle
       cx="88.510002"
       cy="58.52"
       r="0.85000002"
       id="circle185-8"
       style="fill:#002700;fill-opacity:0.99000001;stroke:none" />
    <circle
       cx="88.510002"
       cy="61.060001"
       r="0.85000002"
       id="circle186-1"
       style="fill:#002700;fill-opacity:0.99000001;stroke:none" />
    <path
       style="fill:#002700;fill-opacity:0.99000001;fill-rule:evenodd;stroke:none"
       d="m 89.37,119.11 v 1.7 h -1.7 v -1.7 z"
       id="path202-5" />
    <circle
       cx="88.519997"
       cy="122.5"
       r="0.85000002"
       id="circle203-3"
       style="fill:#002700;fill-opacity:0.99000001;stroke:none" />
    <circle
       cx="88.519997"
       cy="125.04"
       r="0.85000002"
       id="circle204-5"
       style="fill:#002700;fill-opacity:0.99000001;stroke:none" />
    <path
       style="fill:#002700;fill-opacity:0.99000001;fill-rule:evenodd;stroke:none"
       d="m 133.8,75.61 v 1.7 h -1.7 v -1.7 z"
       id="path204-4" />
    <circle
       cx="132.95"
       cy="79"
       r="0.85000002"
       id="circle205-3"
       style="fill:#002700;fill-opacity:0.99000001;stroke:none" />
    <circle
       cx="132.95"
       cy="81.540001"
       r="0.85000002"
       id="circle206-6"
       style="fill:#002700;fill-opacity:0.99000001;stroke:none" />
    <circle
       cx="132.95"
       cy="84.080002"
       r="0.85000002"
       id="circle207-5"
       style="fill:#002700;fill-opacity:0.99000001;stroke:none" />
    <circle
       cx="132.95"
       cy="86.620003"
       r="0.85000002"
       id="circle208-9"
       style="fill:#002700;fill-opacity:0.99000001;stroke:none" />
    <circle
       cx="132.95"
       cy="89.160004"
       r="0.85000002"
       id="circle209-5"
       style="fill:#002700;fill-opacity:0.99000001;stroke:none" />
    <circle
       cx="132.95"
       cy="91.699997"
       r="0.85000002"
       id="circle210-4"
       style="fill:#002700;fill-opacity:0.99000001;stroke:none" />
    <circle
       cx="132.95"
       cy="94.239998"
       r="0.85000002"
       id="circle211-9"
       style="fill:#002700;fill-opacity:0.99000001;stroke:none" />
    <circle
       cx="132.95"
       cy="96.779999"
       r="0.85000002"
       id="circle212-1"
       style="fill:#002700;fill-opacity:0.99000001;stroke:none" />
  </g>
</svg>
