<?xml version="1.0" encoding="UTF-8" standalone="no"?>
<svg
   version="1.1"
   width="11in"
   height="8.5in"
   viewBox="0 0 279.40001 215.9"
   id="svg217"
   sodipodi:docname="VCA 1-control-mask.svg"
   inkscape:version="1.3.2 (091e20e, 2023-11-25)"
   xmlns:inkscape="http://www.inkscape.org/namespaces/inkscape"
   xmlns:sodipodi="http://sodipodi.sourceforge.net/DTD/sodipodi-0.dtd"
   xmlns="http://www.w3.org/2000/svg"
   xmlns:svg="http://www.w3.org/2000/svg"
   xmlns:rdf="http://www.w3.org/1999/02/22-rdf-syntax-ns#"
   xmlns:cc="http://creativecommons.org/ns#"
   xmlns:dc="http://purl.org/dc/elements/1.1/">
  <defs
     id="defs217" />
  <sodipodi:namedview
     id="namedview217"
     pagecolor="#ffffff"
     bordercolor="#000000"
     borderopacity="0.25"
     inkscape:showpageshadow="2"
     inkscape:pageopacity="0.0"
     inkscape:pagecheckerboard="0"
     inkscape:deskcolor="#d1d1d1"
     inkscape:document-units="mm"
     inkscape:zoom="0.50397936"
     inkscape:cx="522.83887"
     inkscape:cy="381.96009"
     inkscape:window-width="1312"
     inkscape:window-height="846"
     inkscape:window-x="0"
     inkscape:window-y="34"
     inkscape:window-maximized="0"
     inkscape:current-layer="svg217" />
  <title
     id="title1">SVG Image created as VCA 1-B_Mask.svg date 2026-07-01T08:56:07 </title>
  <desc
     id="desc1">Image generated by PCBNEW </desc>
  <g
     style="fill:#000000;fill-opacity:1;stroke:#000000;stroke-linecap:round;stroke-linejoin:round;stroke-opacity:1"
     id="g1" />
  <metadata
     id="metadata1">
    <rdf:RDF>
      <cc:Work
         rdf:about="">
        <dc:title>SVG Image created as VCA 1-B_Mask.svg date 2026-07-01T08:56:07 </dc:title>
      </cc:Work>
    </rdf:RDF>
  </metadata>
  <g
     id="g272"
     transform="translate(-48.145697,13.501562)">
    <circle
       cx="111.44"
       cy="92.529999"
       r="0.89999998"
       id="circle1"
       style="fill:#000000;fill-opacity:1;stroke:none" />
    <circle
       cx="130.24001"
       cy="60.827599"
       r="0.89999998"
       id="circle2"
       style="fill:#000000;fill-opacity:1;stroke:none" />
    <circle
       cx="88.519997"
       cy="129.25999"
       r="0.89999998"
       id="circle36"
       style="fill:#000000;fill-opacity:1;stroke:none" />
    <circle
       cx="93.07"
       cy="94.599998"
       r="0.89999998"
       id="circle37"
       style="fill:#000000;fill-opacity:1;stroke:none" />
    <circle
       cx="93.063301"
       cy="80.998802"
       r="0.89999998"
       id="circle38"
       style="fill:#000000;fill-opacity:1;stroke:none" />
    <circle
       cx="94.220001"
       cy="132.2188"
       r="0.89999998"
       id="circle39"
       style="fill:#000000;fill-opacity:1;stroke:none" />
    <circle
       cx="91.93"
       cy="63.259998"
       r="0.89999998"
       id="circle40"
       style="fill:#000000;fill-opacity:1;stroke:none" />
    <circle
       cx="94.970001"
       cy="61.869999"
       r="0.89999998"
       id="circle41"
       style="fill:#000000;fill-opacity:1;stroke:none" />
    <circle
       cx="95.650002"
       cy="40.299999"
       r="0.89999998"
       id="circle42"
       style="fill:#000000;fill-opacity:1;stroke:none" />
    <circle
       cx="98.160004"
       cy="61.209999"
       r="0.89999998"
       id="circle43"
       style="fill:#000000;fill-opacity:1;stroke:none" />
    <circle
       cx="103.19"
       cy="94.220001"
       r="0.89999998"
       id="circle44"
       style="fill:#000000;fill-opacity:1;stroke:none" />
    <circle
       cx="104.3676"
       cy="114.6243"
       r="0.89999998"
       id="circle45"
       style="fill:#000000;fill-opacity:1;stroke:none" />
    <circle
       cx="103.29"
       cy="126.35"
       r="0.89999998"
       id="circle46"
       style="fill:#000000;fill-opacity:1;stroke:none" />
    <circle
       cx="104.75"
       cy="84.108803"
       r="0.89999998"
       id="circle47"
       style="fill:#000000;fill-opacity:1;stroke:none" />
    <circle
       cx="104.23"
       cy="58.43"
       r="0.89999998"
       id="circle48"
       style="fill:#000000;fill-opacity:1;stroke:none" />
    <circle
       cx="104.39"
       cy="49.02"
       r="0.89999998"
       id="circle49"
       style="fill:#000000;fill-opacity:1;stroke:none" />
    <circle
       cx="104.47"
       cy="55.240002"
       r="0.89999998"
       id="circle50"
       style="fill:#000000;fill-opacity:1;stroke:none" />
    <circle
       cx="129.14"
       cy="79.050003"
       r="0.89999998"
       id="circle51"
       style="fill:#000000;fill-opacity:1;stroke:none" />
    <circle
       cx="129.17"
       cy="86.618797"
       r="0.89999998"
       id="circle52"
       style="fill:#000000;fill-opacity:1;stroke:none" />
    <circle
       cx="129.2"
       cy="81.550003"
       r="0.89999998"
       id="circle53"
       style="fill:#000000;fill-opacity:1;stroke:none" />
    <circle
       cx="129.28"
       cy="89.139999"
       r="0.89999998"
       id="circle54"
       style="fill:#000000;fill-opacity:1;stroke:none" />
    <circle
       cx="132.94"
       cy="72.610001"
       r="0.89999998"
       id="circle55"
       style="fill:#000000;fill-opacity:1;stroke:none" />
    <path
       style="fill:#000000;fill-opacity:1;fill-rule:evenodd;stroke:none"
       d="m 126.695,43.985 v 1.83 h -1.93 v -1.83 z"
       id="path63" />
    <circle
       cx="125.73"
       cy="56.299999"
       r="1.0650001"
       id="circle64"
       style="fill:#000000;fill-opacity:1;stroke:none" />
    <circle
       cx="125.73"
       cy="48"
       r="1.0650001"
       id="circle65"
       style="fill:#000000;fill-opacity:1;stroke:none" />
    <circle
       cx="131.11"
       cy="137.41"
       r="1.35"
       id="circle69"
       style="fill:#000000;fill-opacity:1;stroke:none" />
    <path
       style="fill:#000000;fill-opacity:1;fill-rule:evenodd;stroke:none"
       d="m 102.31,101.84 v -1.8 h 1.8 v 1.8 z"
       id="path83" />
    <circle
       cx="103.21"
       cy="103.44"
       r="0.89999998"
       id="circle84"
       style="fill:#000000;fill-opacity:1;stroke:none" />
    <circle
       cx="103.21"
       cy="105.94"
       r="0.89999998"
       id="circle85"
       style="fill:#000000;fill-opacity:1;stroke:none" />
    <path
       style="fill:#000000;fill-opacity:1;fill-rule:evenodd;stroke:none"
       d="m 109.71,97.69 0.0114,-0.1063 0.0498,-0.1333 0.0852,-0.114 0.114,-0.0852 0.1333,-0.0498 0.1063,-0.0114 h 1 l 0.1063,0.0114 0.1333,0.0498 0.114,0.0852 0.0852,0.114 0.0498,0.1333 0.0114,0.1063 v 2 l -0.0114,0.1063 -0.0498,0.1333 -0.0852,0.114 -0.114,0.0852 -0.1333,0.0498 -0.1063,0.0114 h -1 l -0.1063,-0.0114 -0.1333,-0.0498 -0.114,-0.0852 -0.0852,-0.114 -0.0498,-0.1333 L 109.71,99.69 Z"
       id="path85" />
    <path
       style="fill:#000000;fill-opacity:1;fill-rule:evenodd;stroke:none"
       d="m 109.71,107.19 0.0114,-0.1063 0.0498,-0.1333 0.0852,-0.114 0.114,-0.0852 0.1333,-0.0498 0.1063,-0.0114 h 1 l 0.1063,0.0114 0.1333,0.0498 0.114,0.0852 0.0852,0.114 0.0498,0.1333 0.0114,0.1063 v 2 l -0.0114,0.1063 -0.0498,0.1333 -0.0852,0.114 -0.114,0.0852 -0.1333,0.0498 -0.1063,0.0114 h -1 l -0.1063,-0.0114 -0.1333,-0.0498 -0.114,-0.0852 -0.0852,-0.114 -0.0498,-0.1333 -0.0114,-0.1063 z"
       id="path86" />
    <path
       style="fill:#000000;fill-opacity:1;fill-rule:evenodd;stroke:none"
       d="M 87.24,101.8 V 100 h 1.8 v 1.8 z"
       id="path119" />
    <circle
       cx="88.139999"
       cy="103.4"
       r="0.89999998"
       id="circle120"
       style="fill:#000000;fill-opacity:1;stroke:none" />
    <circle
       cx="88.139999"
       cy="105.9"
       r="0.89999998"
       id="circle121"
       style="fill:#000000;fill-opacity:1;stroke:none" />
    <path
       style="fill:#000000;fill-opacity:1;fill-rule:evenodd;stroke:none"
       d="m 94.64,97.65 0.0114,-0.1063 0.0498,-0.1333 0.0852,-0.114 0.114,-0.0852 0.1333,-0.0498 L 95.14,97.15 h 1 l 0.1063,0.0114 0.1333,0.0498 0.114,0.0852 0.0852,0.114 0.0498,0.1333 0.0114,0.1063 v 2 l -0.0114,0.1063 -0.0498,0.1333 -0.0852,0.114 -0.114,0.0852 -0.1333,0.0498 -0.1063,0.0114 h -1 l -0.1063,-0.0114 -0.1333,-0.0498 -0.114,-0.0852 -0.0852,-0.114 L 94.6514,99.7563 94.64,99.65 Z"
       id="path121" />
    <path
       style="fill:#000000;fill-opacity:1;fill-rule:evenodd;stroke:none"
       d="m 94.64,107.15 0.0114,-0.1063 0.0498,-0.1333 0.0852,-0.114 0.114,-0.0852 0.1333,-0.0498 0.1063,-0.0114 h 1 l 0.1063,0.0114 0.1333,0.0498 0.114,0.0852 0.0852,0.114 0.0498,0.1333 0.0114,0.1063 v 2 l -0.0114,0.1063 -0.0498,0.1333 -0.0852,0.114 -0.114,0.0852 -0.1333,0.0498 -0.1063,0.0114 h -1 l -0.1063,-0.0114 -0.1333,-0.0498 -0.114,-0.0852 -0.0852,-0.114 -0.0498,-0.1333 L 94.64,109.15 Z"
       id="path122" />
    <path
       style="fill:#000000;fill-opacity:1;fill-rule:evenodd;stroke:none"
       d="m 111.645,43.985 v 1.83 h -1.93 v -1.83 z"
       id="path123" />
    <circle
       cx="110.68"
       cy="56.299999"
       r="1.0650001"
       id="circle123"
       style="fill:#000000;fill-opacity:1;stroke:none" />
    <circle
       cx="110.68"
       cy="48"
       r="1.0650001"
       id="circle124"
       style="fill:#000000;fill-opacity:1;stroke:none" />
    <circle
       cx="131.11"
       cy="37.23"
       r="1.35"
       id="circle126"
       style="fill:#000000;fill-opacity:1;stroke:none" />
    <circle
       cx="90.269997"
       cy="37.209999"
       r="1.35"
       id="circle127"
       style="fill:#000000;fill-opacity:1;stroke:none" />
    <path
       style="fill:#000000;fill-opacity:1;fill-rule:evenodd;stroke:none"
       d="m 96.635,115.895 v 1.83 h -1.93 v -1.83 z"
       id="path129" />
    <circle
       cx="95.669998"
       cy="128.21001"
       r="1.0650001"
       id="circle130"
       style="fill:#000000;fill-opacity:1;stroke:none" />
    <circle
       cx="95.669998"
       cy="119.91"
       r="1.0650001"
       id="circle131"
       style="fill:#000000;fill-opacity:1;stroke:none" />
    <path
       style="fill:#000000;fill-opacity:1;fill-rule:evenodd;stroke:none"
       d="m 96.715,43.975 v 1.83 h -1.93 v -1.83 z"
       id="path135" />
    <circle
       cx="95.75"
       cy="56.290001"
       r="1.0650001"
       id="circle136"
       style="fill:#000000;fill-opacity:1;stroke:none" />
    <circle
       cx="95.75"
       cy="47.990002"
       r="1.0650001"
       id="circle137"
       style="fill:#000000;fill-opacity:1;stroke:none" />
    <path
       style="fill:#000000;fill-opacity:1;fill-rule:evenodd;stroke:none"
       d="m 117.355,69.67 v -1.8 h 1.8 v 1.8 z"
       id="path152" />
    <circle
       cx="118.255"
       cy="71.269997"
       r="0.89999998"
       id="circle153"
       style="fill:#000000;fill-opacity:1;stroke:none" />
    <circle
       cx="118.255"
       cy="73.769997"
       r="0.89999998"
       id="circle154"
       style="fill:#000000;fill-opacity:1;stroke:none" />
    <path
       style="fill:#000000;fill-opacity:1;fill-rule:evenodd;stroke:none"
       d="m 124.755,65.52 0.0114,-0.1063 0.0498,-0.1333 0.0852,-0.114 0.114,-0.0852 0.1333,-0.0498 0.1063,-0.0114 h 1 l 0.1063,0.0114 0.1333,0.0498 0.114,0.0852 0.0852,0.114 0.0498,0.1333 0.0114,0.1063 v 2 l -0.0114,0.1063 -0.0498,0.1333 -0.0852,0.114 -0.114,0.0852 -0.1333,0.0498 -0.1063,0.0114 h -1 l -0.1063,-0.0114 -0.1333,-0.0498 -0.114,-0.0852 -0.0852,-0.114 -0.0498,-0.1333 -0.0114,-0.1063 z"
       id="path154" />
    <path
       style="fill:#000000;fill-opacity:1;fill-rule:evenodd;stroke:none"
       d="m 124.755,75.02 0.0114,-0.1063 0.0498,-0.1333 0.0852,-0.114 0.114,-0.0852 0.1333,-0.0498 0.1063,-0.0114 h 1 l 0.1063,0.0114 0.1333,0.0498 0.114,0.0852 0.0852,0.114 0.0498,0.1333 0.0114,0.1063 v 2 l -0.0114,0.1063 -0.0498,0.1333 -0.0852,0.114 -0.114,0.0852 -0.1333,0.0498 -0.1063,0.0114 h -1 l -0.1063,-0.0114 -0.1333,-0.0498 -0.114,-0.0852 -0.0852,-0.114 -0.0498,-0.1333 -0.0114,-0.1063 z"
       id="path155" />
    <path
       style="fill:#000000;fill-opacity:1;fill-rule:evenodd;stroke:none"
       d="m 111.655,115.905 v 1.83 h -1.93 v -1.83 z"
       id="path159" />
    <circle
       cx="110.69"
       cy="128.22"
       r="1.0650001"
       id="circle160"
       style="fill:#000000;fill-opacity:1;stroke:none" />
    <circle
       cx="110.69"
       cy="119.92"
       r="1.0650001"
       id="circle161"
       style="fill:#000000;fill-opacity:1;stroke:none" />
    <path
       style="fill:#000000;fill-opacity:1;fill-rule:evenodd;stroke:none"
       d="m 117.41,101.83 v -1.8 h 1.8 v 1.8 z"
       id="path165" />
    <circle
       cx="118.31"
       cy="103.43"
       r="0.89999998"
       id="circle166"
       style="fill:#000000;fill-opacity:1;stroke:none" />
    <circle
       cx="118.31"
       cy="105.93"
       r="0.89999998"
       id="circle167"
       style="fill:#000000;fill-opacity:1;stroke:none" />
    <path
       style="fill:#000000;fill-opacity:1;fill-rule:evenodd;stroke:none"
       d="m 124.81,97.68 0.0114,-0.1063 0.0498,-0.1333 0.0852,-0.114 0.114,-0.0852 0.1333,-0.0498 0.1063,-0.0114 h 1 l 0.1063,0.0114 0.1333,0.0498 0.114,0.0852 0.0852,0.114 0.0498,0.1333 0.0114,0.1063 v 2 l -0.0114,0.1063 -0.0498,0.1333 -0.0852,0.114 -0.114,0.0852 -0.1333,0.0498 -0.1063,0.0114 h -1 l -0.1063,-0.0114 -0.1333,-0.0498 -0.114,-0.0852 -0.0852,-0.114 -0.0498,-0.1333 L 124.81,99.68 Z"
       id="path167" />
    <path
       style="fill:#000000;fill-opacity:1;fill-rule:evenodd;stroke:none"
       d="m 124.81,107.18 0.0114,-0.1063 0.0498,-0.1333 0.0852,-0.114 0.114,-0.0852 0.1333,-0.0498 0.1063,-0.0114 h 1 l 0.1063,0.0114 0.1333,0.0498 0.114,0.0852 0.0852,0.114 0.0498,0.1333 0.0114,0.1063 v 2 l -0.0114,0.1063 -0.0498,0.1333 -0.0852,0.114 -0.114,0.0852 -0.1333,0.0498 -0.1063,0.0114 h -1 l -0.1063,-0.0114 -0.1333,-0.0498 -0.114,-0.0852 -0.0852,-0.114 -0.0498,-0.1333 -0.0114,-0.1063 z"
       id="path168" />
    <path
       style="fill:#000000;fill-opacity:1;fill-rule:evenodd;stroke:none"
       d="m 108.49,38.21 v -1.8 h 1.8 v 1.8 z"
       id="path176" />
    <circle
       cx="111.93"
       cy="37.310001"
       r="0.89999998"
       id="circle177"
       style="fill:#000000;fill-opacity:1;stroke:none" />
    <path
       style="fill:#000000;fill-opacity:1;fill-rule:evenodd;stroke:none"
       d="m 87.31,69.66 v -1.8 h 1.8 v 1.8 z"
       id="path180" />
    <circle
       cx="88.209999"
       cy="71.260002"
       r="0.89999998"
       id="circle181"
       style="fill:#000000;fill-opacity:1;stroke:none" />
    <circle
       cx="88.209999"
       cy="73.760002"
       r="0.89999998"
       id="circle182"
       style="fill:#000000;fill-opacity:1;stroke:none" />
    <path
       style="fill:#000000;fill-opacity:1;fill-rule:evenodd;stroke:none"
       d="m 94.71,65.51 0.0114,-0.1063 0.0498,-0.1333 0.0852,-0.114 0.114,-0.0852 0.1333,-0.0498 L 95.21,65.01 h 1 l 0.1063,0.0114 0.1333,0.0498 0.114,0.0852 0.0852,0.114 0.0498,0.1333 0.0114,0.1063 v 2 l -0.0114,0.1063 -0.0498,0.1333 -0.0852,0.114 -0.114,0.0852 -0.1333,0.0498 L 96.21,68.01 h -1 L 95.1037,67.9986 94.9704,67.9488 94.8564,67.8636 94.7712,67.7496 94.7214,67.6163 94.71,67.51 Z"
       id="path182" />
    <path
       style="fill:#000000;fill-opacity:1;fill-rule:evenodd;stroke:none"
       d="m 94.71,75.01 0.0114,-0.1063 0.0498,-0.1333 0.0852,-0.114 0.114,-0.0852 0.1333,-0.0498 L 95.21,74.51 h 1 l 0.1063,0.0114 0.1333,0.0498 0.114,0.0852 0.0852,0.114 0.0498,0.1333 0.0114,0.1063 v 2 l -0.0114,0.1063 -0.0498,0.1333 -0.0852,0.114 -0.114,0.0852 -0.1333,0.0498 L 96.21,77.51 h -1 L 95.1037,77.4986 94.9704,77.4488 94.8564,77.3636 94.7712,77.2496 94.7214,77.1163 94.71,77.01 Z"
       id="path183" />
    <path
       style="fill:#000000;fill-opacity:1;fill-rule:evenodd;stroke:none"
       d="m 102.32,69.67 v -1.8 h 1.8 v 1.8 z"
       id="path184" />
    <circle
       cx="103.22"
       cy="71.269997"
       r="0.89999998"
       id="circle185"
       style="fill:#000000;fill-opacity:1;stroke:none" />
    <circle
       cx="103.22"
       cy="73.769997"
       r="0.89999998"
       id="circle186"
       style="fill:#000000;fill-opacity:1;stroke:none" />
    <path
       style="fill:#000000;fill-opacity:1;fill-rule:evenodd;stroke:none"
       d="m 109.72,65.52 0.0114,-0.1063 0.0498,-0.1333 0.0852,-0.114 0.114,-0.0852 0.1333,-0.0498 0.1063,-0.0114 h 1 l 0.1063,0.0114 0.1333,0.0498 0.114,0.0852 0.0852,0.114 0.0498,0.1333 0.0114,0.1063 v 2 l -0.0114,0.1063 -0.0498,0.1333 -0.0852,0.114 -0.114,0.0852 -0.1333,0.0498 -0.1063,0.0114 h -1 l -0.1063,-0.0114 -0.1333,-0.0498 -0.114,-0.0852 -0.0852,-0.114 -0.0498,-0.1333 L 109.72,67.52 Z"
       id="path186" />
    <path
       style="fill:#000000;fill-opacity:1;fill-rule:evenodd;stroke:none"
       d="m 109.72,75.02 0.0114,-0.1063 0.0498,-0.1333 0.0852,-0.114 0.114,-0.0852 0.1333,-0.0498 0.1063,-0.0114 h 1 l 0.1063,0.0114 0.1333,0.0498 0.114,0.0852 0.0852,0.114 0.0498,0.1333 0.0114,0.1063 v 2 l -0.0114,0.1063 -0.0498,0.1333 -0.0852,0.114 -0.114,0.0852 -0.1333,0.0498 -0.1063,0.0114 h -1 l -0.1063,-0.0114 -0.1333,-0.0498 -0.114,-0.0852 -0.0852,-0.114 -0.0498,-0.1333 L 109.72,77.02 Z"
       id="path187" />
    <circle
       cx="90.269997"
       cy="137.41"
       r="1.35"
       id="circle191"
       style="fill:#000000;fill-opacity:1;stroke:none" />
    <path
       style="fill:#000000;fill-opacity:1;fill-rule:evenodd;stroke:none"
       d="m 126.725,115.905 v 1.83 h -1.93 v -1.83 z"
       id="path191" />
    <circle
       cx="125.76"
       cy="128.22"
       r="1.0650001"
       id="circle192"
       style="fill:#000000;fill-opacity:1;stroke:none" />
    <circle
       cx="125.76"
       cy="119.92"
       r="1.0650001"
       id="circle193"
       style="fill:#000000;fill-opacity:1;stroke:none" />
    <path
       style="fill:#000000;fill-opacity:1;fill-rule:evenodd;stroke:none"
       d="m 108.45,138.28 v -1.8 h 1.8 v 1.8 z"
       id="path230" />
    <circle
       cx="111.89"
       cy="137.38"
       r="0.89999998"
       id="circle231"
       style="fill:#000000;fill-opacity:1;stroke:none" />
    <path
       style="fill:#000000;fill-opacity:1;fill-rule:evenodd;stroke:none"
       d="m 89.36,42.43 v 1.7 h -1.7 v -1.7 z"
       id="path233" />
    <circle
       cx="88.510002"
       cy="45.82"
       r="0.85000002"
       id="circle234"
       style="fill:#000000;fill-opacity:1;stroke:none" />
    <circle
       cx="88.510002"
       cy="48.360001"
       r="0.85000002"
       id="circle235"
       style="fill:#000000;fill-opacity:1;stroke:none" />
    <circle
       cx="88.510002"
       cy="50.900002"
       r="0.85000002"
       id="circle236"
       style="fill:#000000;fill-opacity:1;stroke:none" />
    <circle
       cx="88.510002"
       cy="53.439999"
       r="0.85000002"
       id="circle237"
       style="fill:#000000;fill-opacity:1;stroke:none" />
    <circle
       cx="88.510002"
       cy="55.98"
       r="0.85000002"
       id="circle238"
       style="fill:#000000;fill-opacity:1;stroke:none" />
    <circle
       cx="88.510002"
       cy="58.52"
       r="0.85000002"
       id="circle239"
       style="fill:#000000;fill-opacity:1;stroke:none" />
    <circle
       cx="88.510002"
       cy="61.060001"
       r="0.85000002"
       id="circle240"
       style="fill:#000000;fill-opacity:1;stroke:none" />
    <path
       style="fill:#000000;fill-opacity:1;fill-rule:evenodd;stroke:none"
       d="m 89.37,119.11 v 1.7 h -1.7 v -1.7 z"
       id="path256" />
    <circle
       cx="88.519997"
       cy="122.5"
       r="0.85000002"
       id="circle257"
       style="fill:#000000;fill-opacity:1;stroke:none" />
    <circle
       cx="88.519997"
       cy="125.04"
       r="0.85000002"
       id="circle258"
       style="fill:#000000;fill-opacity:1;stroke:none" />
    <path
       style="fill:#000000;fill-opacity:1;fill-rule:evenodd;stroke:none"
       d="m 133.8,75.61 v 1.7 h -1.7 v -1.7 z"
       id="path258" />
    <circle
       cx="132.95"
       cy="79"
       r="0.85000002"
       id="circle259"
       style="fill:#000000;fill-opacity:1;stroke:none" />
    <circle
       cx="132.95"
       cy="81.540001"
       r="0.85000002"
       id="circle260"
       style="fill:#000000;fill-opacity:1;stroke:none" />
    <circle
       cx="132.95"
       cy="84.080002"
       r="0.85000002"
       id="circle261"
       style="fill:#000000;fill-opacity:1;stroke:none" />
    <circle
       cx="132.95"
       cy="86.620003"
       r="0.85000002"
       id="circle262"
       style="fill:#000000;fill-opacity:1;stroke:none" />
    <circle
       cx="132.95"
       cy="89.160004"
       r="0.85000002"
       id="circle263"
       style="fill:#000000;fill-opacity:1;stroke:none" />
    <circle
       cx="132.95"
       cy="91.699997"
       r="0.85000002"
       id="circle264"
       style="fill:#000000;fill-opacity:1;stroke:none" />
    <circle
       cx="132.95"
       cy="94.239998"
       r="0.85000002"
       id="circle265"
       style="fill:#000000;fill-opacity:1;stroke:none" />
    <circle
       cx="132.95"
       cy="96.779999"
       r="0.85000002"
       id="circle266"
       style="fill:#000000;fill-opacity:1;stroke:none" />
  </g>
  <g
     id="g2">
    <circle
       cx="166.06502"
       cy="105.01039"
       r="0.90880001"
       id="circle1-4"
       style="fill:#000000;fill-opacity:1;stroke:none" />
    <circle
       cx="147.27501"
       cy="73.307991"
       r="0.90880001"
       id="circle2-8"
       style="fill:#000000;fill-opacity:1;stroke:none" />
    <circle
       cx="188.99501"
       cy="141.7404"
       r="0.90880001"
       id="circle36-3"
       style="fill:#000000;fill-opacity:1;stroke:none" />
    <circle
       cx="184.45502"
       cy="107.09039"
       r="0.90880001"
       id="circle37-9"
       style="fill:#000000;fill-opacity:1;stroke:none" />
    <circle
       cx="184.46172"
       cy="93.469193"
       r="0.90880001"
       id="circle38-0"
       style="fill:#000000;fill-opacity:1;stroke:none" />
    <circle
       cx="183.29501"
       cy="144.6992"
       r="0.90880001"
       id="circle39-5"
       style="fill:#000000;fill-opacity:1;stroke:none" />
    <circle
       cx="185.57501"
       cy="75.749191"
       r="0.90880001"
       id="circle40-2"
       style="fill:#000000;fill-opacity:1;stroke:none" />
    <circle
       cx="182.53502"
       cy="74.359192"
       r="0.90880001"
       id="circle41-2"
       style="fill:#000000;fill-opacity:1;stroke:none" />
    <circle
       cx="181.87502"
       cy="52.780388"
       r="0.90880001"
       id="circle42-7"
       style="fill:#000000;fill-opacity:1;stroke:none" />
    <circle
       cx="179.34502"
       cy="73.699188"
       r="0.90880001"
       id="circle43-3"
       style="fill:#000000;fill-opacity:1;stroke:none" />
    <circle
       cx="174.32501"
       cy="106.70039"
       r="0.90880001"
       id="circle44-7"
       style="fill:#000000;fill-opacity:1;stroke:none" />
    <circle
       cx="173.15741"
       cy="127.10469"
       r="0.90880001"
       id="circle45-9"
       style="fill:#000000;fill-opacity:1;stroke:none" />
    <circle
       cx="174.20502"
       cy="138.8304"
       r="0.90880001"
       id="circle46-0"
       style="fill:#000000;fill-opacity:1;stroke:none" />
    <circle
       cx="172.755"
       cy="96.589188"
       r="0.90880001"
       id="circle47-2"
       style="fill:#000000;fill-opacity:1;stroke:none" />
    <circle
       cx="173.27501"
       cy="70.919189"
       r="0.90880001"
       id="circle48-3"
       style="fill:#000000;fill-opacity:1;stroke:none" />
    <circle
       cx="173.13501"
       cy="61.45919"
       r="0.90880001"
       id="circle49-9"
       style="fill:#000000;fill-opacity:1;stroke:none" />
    <circle
       cx="173.03502"
       cy="67.729195"
       r="0.90880001"
       id="circle50-9"
       style="fill:#000000;fill-opacity:1;stroke:none" />
    <circle
       cx="148.36501"
       cy="91.530388"
       r="0.90880001"
       id="circle51-7"
       style="fill:#000000;fill-opacity:1;stroke:none" />
    <circle
       cx="148.33501"
       cy="99.09919"
       r="0.90880001"
       id="circle52-0"
       style="fill:#000000;fill-opacity:1;stroke:none" />
    <circle
       cx="148.30501"
       cy="94.030388"
       r="0.90880001"
       id="circle53-3"
       style="fill:#000000;fill-opacity:1;stroke:none" />
    <circle
       cx="148.22501"
       cy="101.62039"
       r="0.90880001"
       id="circle54-9"
       style="fill:#000000;fill-opacity:1;stroke:none" />
    <circle
       cx="144.56502"
       cy="85.090385"
       r="0.90880001"
       id="circle55-8"
       style="fill:#000000;fill-opacity:1;stroke:none" />
    <path
       style="fill:#000000;fill-opacity:1;fill-rule:evenodd;stroke:none"
       d="m 150.83,56.47419 v 1.83 h 1.93 v -1.83 z"
       id="path63-6" />
    <circle
       cx="151.79501"
       cy="68.789192"
       r="1.0650001"
       id="circle64-5"
       style="fill:#000000;fill-opacity:1;stroke:none" />
    <circle
       cx="151.79501"
       cy="60.489189"
       r="1.0650001"
       id="circle65-7"
       style="fill:#000000;fill-opacity:1;stroke:none" />
    <circle
       cx="146.41501"
       cy="149.8992"
       r="1.35"
       id="circle69-6"
       style="fill:#000000;fill-opacity:1;stroke:none" />
    <path
       style="fill:#000000;fill-opacity:1;fill-rule:evenodd;stroke:none"
       d="m 175.21501,114.32919 v -1.8 H 173.415 v 1.8 z"
       id="path83-2" />
    <circle
       cx="174.31502"
       cy="115.92919"
       r="0.89999998"
       id="circle84-7"
       style="fill:#000000;fill-opacity:1;stroke:none" />
    <circle
       cx="174.31502"
       cy="118.42919"
       r="0.89999998"
       id="circle85-0"
       style="fill:#000000;fill-opacity:1;stroke:none" />
    <path
       style="fill:#000000;fill-opacity:1;fill-rule:evenodd;stroke:none"
       d="m 167.81501,110.17919 -0.0114,-0.1063 -0.0498,-0.1333 -0.0852,-0.114 -0.11401,-0.0852 -0.13329,-0.0498 -0.1063,-0.0114 h -1 l -0.10631,0.0114 -0.13329,0.0498 -0.114,0.0852 -0.0852,0.114 -0.0498,0.1333 -0.0114,0.1063 v 2 l 0.0114,0.1063 0.0498,0.1333 0.0852,0.114 0.114,0.0852 0.13329,0.0498 0.10631,0.0114 h 1 l 0.1063,-0.0114 0.13329,-0.0498 0.11401,-0.0852 0.0852,-0.114 0.0498,-0.1333 0.0114,-0.1063 z"
       id="path85-3" />
    <path
       style="fill:#000000;fill-opacity:1;fill-rule:evenodd;stroke:none"
       d="m 167.81501,119.67919 -0.0114,-0.1063 -0.0498,-0.1333 -0.0852,-0.114 -0.11401,-0.0852 -0.13329,-0.0498 -0.1063,-0.0114 h -1 l -0.10631,0.0114 -0.13329,0.0498 -0.114,0.0852 -0.0852,0.114 -0.0498,0.1333 -0.0114,0.1063 v 2 l 0.0114,0.1063 0.0498,0.1333 0.0852,0.114 0.114,0.0852 0.13329,0.0498 0.10631,0.0114 h 1 l 0.1063,-0.0114 0.13329,-0.0498 0.11401,-0.0852 0.0852,-0.114 0.0498,-0.1333 0.0114,-0.1063 z"
       id="path86-9" />
    <path
       style="fill:#000000;fill-opacity:1;fill-rule:evenodd;stroke:none"
       d="m 190.285,114.28919 v -1.8 h -1.8 v 1.8 z"
       id="path119-9" />
    <circle
       cx="189.38501"
       cy="115.88919"
       r="0.89999998"
       id="circle120-9"
       style="fill:#000000;fill-opacity:1;stroke:none" />
    <circle
       cx="189.38501"
       cy="118.38919"
       r="0.89999998"
       id="circle121-1"
       style="fill:#000000;fill-opacity:1;stroke:none" />
    <path
       style="fill:#000000;fill-opacity:1;fill-rule:evenodd;stroke:none"
       d="m 182.885,110.13919 -0.0114,-0.1063 -0.0498,-0.1333 -0.0852,-0.114 -0.114,-0.0852 -0.1333,-0.0498 -0.1063,-0.0114 h -1 l -0.1063,0.0114 -0.1333,0.0498 -0.114,0.0852 -0.0852,0.114 -0.0498,0.1333 -0.0114,0.1063 v 2 l 0.0114,0.1063 0.0498,0.1333 0.0852,0.114 0.114,0.0852 0.1333,0.0498 0.1063,0.0114 h 1 l 0.1063,-0.0114 0.1333,-0.0498 0.114,-0.0852 0.0852,-0.114 0.0498,-0.1333 0.0114,-0.1063 z"
       id="path121-7" />
    <path
       style="fill:#000000;fill-opacity:1;fill-rule:evenodd;stroke:none"
       d="m 182.885,119.63919 -0.0114,-0.1063 -0.0498,-0.1333 -0.0852,-0.114 -0.114,-0.0852 -0.1333,-0.0498 -0.1063,-0.0114 h -1 l -0.1063,0.0114 -0.1333,0.0498 -0.114,0.0852 -0.0852,0.114 -0.0498,0.1333 -0.0114,0.1063 v 2 l 0.0114,0.1063 0.0498,0.1333 0.0852,0.114 0.114,0.0852 0.1333,0.0498 0.1063,0.0114 h 1 l 0.1063,-0.0114 0.1333,-0.0498 0.114,-0.0852 0.0852,-0.114 0.0498,-0.1333 0.0114,-0.1063 z"
       id="path122-2" />
    <path
       style="fill:#000000;fill-opacity:1;fill-rule:evenodd;stroke:none"
       d="m 165.88,56.47419 v 1.83 h 1.93001 v -1.83 z"
       id="path123-3" />
    <circle
       cx="166.84502"
       cy="68.789192"
       r="1.0650001"
       id="circle123-6"
       style="fill:#000000;fill-opacity:1;stroke:none" />
    <circle
       cx="166.84502"
       cy="60.489189"
       r="1.0650001"
       id="circle124-5"
       style="fill:#000000;fill-opacity:1;stroke:none" />
    <circle
       cx="146.41501"
       cy="49.719189"
       r="1.35"
       id="circle126-5"
       style="fill:#000000;fill-opacity:1;stroke:none" />
    <circle
       cx="187.255"
       cy="49.699188"
       r="1.35"
       id="circle127-8"
       style="fill:#000000;fill-opacity:1;stroke:none" />
    <path
       style="fill:#000000;fill-opacity:1;fill-rule:evenodd;stroke:none"
       d="m 180.89,128.38419 v 1.83 h 1.93 v -1.83 z"
       id="path129-1" />
    <circle
       cx="181.85501"
       cy="140.6992"
       r="1.0650001"
       id="circle130-4"
       style="fill:#000000;fill-opacity:1;stroke:none" />
    <circle
       cx="181.85501"
       cy="132.3992"
       r="1.0650001"
       id="circle131-7"
       style="fill:#000000;fill-opacity:1;stroke:none" />
    <path
       style="fill:#000000;fill-opacity:1;fill-rule:evenodd;stroke:none"
       d="m 180.81001,56.46419 v 1.83 h 1.93 v -1.83 z"
       id="path135-1" />
    <circle
       cx="181.77501"
       cy="68.77919"
       r="1.0650001"
       id="circle136-3"
       style="fill:#000000;fill-opacity:1;stroke:none" />
    <circle
       cx="181.77501"
       cy="60.479191"
       r="1.0650001"
       id="circle137-8"
       style="fill:#000000;fill-opacity:1;stroke:none" />
    <path
       style="fill:#000000;fill-opacity:1;fill-rule:evenodd;stroke:none"
       d="m 160.17,82.15919 v -1.8 h -1.8 v 1.8 z"
       id="path152-4" />
    <circle
       cx="159.27"
       cy="83.759186"
       r="0.89999998"
       id="circle153-8"
       style="fill:#000000;fill-opacity:1;stroke:none" />
    <circle
       cx="159.27"
       cy="86.259186"
       r="0.89999998"
       id="circle154-0"
       style="fill:#000000;fill-opacity:1;stroke:none" />
    <path
       style="fill:#000000;fill-opacity:1;fill-rule:evenodd;stroke:none"
       d="m 152.77,78.00919 -0.0114,-0.1063 -0.0498,-0.1333 -0.0852,-0.114 -0.114,-0.0852 -0.1333,-0.0498 -0.1063,-0.0114 h -1 l -0.1063,0.0114 -0.1333,0.0498 -0.114,0.0852 -0.0852,0.114 -0.0498,0.1333 -0.0114,0.1063 v 2 l 0.0114,0.1063 0.0498,0.1333 0.0852,0.114 0.114,0.0852 0.1333,0.0498 0.1063,0.0114 h 1 l 0.1063,-0.0114 0.1333,-0.0498 0.114,-0.0852 0.0852,-0.114 0.0498,-0.1333 0.0114,-0.1063 z"
       id="path154-4" />
    <path
       style="fill:#000000;fill-opacity:1;fill-rule:evenodd;stroke:none"
       d="m 152.77,87.50919 -0.0114,-0.1063 -0.0498,-0.1333 -0.0852,-0.114 -0.114,-0.0852 -0.1333,-0.0498 -0.1063,-0.0114 h -1 l -0.1063,0.0114 -0.1333,0.0498 -0.114,0.0852 -0.0852,0.114 -0.0498,0.1333 -0.0114,0.1063 v 2 l 0.0114,0.1063 0.0498,0.1333 0.0852,0.114 0.114,0.0852 0.1333,0.0498 0.1063,0.0114 h 1 l 0.1063,-0.0114 0.1333,-0.0498 0.114,-0.0852 0.0852,-0.114 0.0498,-0.1333 0.0114,-0.1063 z"
       id="path155-6" />
    <path
       style="fill:#000000;fill-opacity:1;fill-rule:evenodd;stroke:none"
       d="m 165.87,128.39419 v 1.83 h 1.93 v -1.83 z"
       id="path159-0" />
    <circle
       cx="166.83501"
       cy="140.7092"
       r="1.0650001"
       id="circle160-3"
       style="fill:#000000;fill-opacity:1;stroke:none" />
    <circle
       cx="166.83501"
       cy="132.40919"
       r="1.0650001"
       id="circle161-2"
       style="fill:#000000;fill-opacity:1;stroke:none" />
    <path
       style="fill:#000000;fill-opacity:1;fill-rule:evenodd;stroke:none"
       d="m 160.115,114.31919 v -1.8 h -1.8 v 1.8 z"
       id="path165-6" />
    <circle
       cx="159.21501"
       cy="115.91919"
       r="0.89999998"
       id="circle166-9"
       style="fill:#000000;fill-opacity:1;stroke:none" />
    <circle
       cx="159.21501"
       cy="118.41919"
       r="0.89999998"
       id="circle167-4"
       style="fill:#000000;fill-opacity:1;stroke:none" />
    <path
       style="fill:#000000;fill-opacity:1;fill-rule:evenodd;stroke:none"
       d="m 152.71501,110.16919 -0.0114,-0.1063 -0.0498,-0.1333 -0.0852,-0.114 -0.114,-0.0852 -0.1333,-0.0498 -0.1063,-0.0114 h -1 l -0.1063,0.0114 -0.1333,0.0498 -0.114,0.0852 -0.0852,0.114 -0.0498,0.1333 -0.0114,0.1063 v 2 l 0.0114,0.1063 0.0498,0.1333 0.0852,0.114 0.114,0.0852 0.1333,0.0498 0.1063,0.0114 h 1 l 0.1063,-0.0114 0.1333,-0.0498 0.114,-0.0852 0.0852,-0.114 0.0498,-0.1333 0.0114,-0.1063 z"
       id="path167-1" />
    <path
       style="fill:#000000;fill-opacity:1;fill-rule:evenodd;stroke:none"
       d="m 152.71501,119.66919 -0.0114,-0.1063 -0.0498,-0.1333 -0.0852,-0.114 -0.114,-0.0852 -0.1333,-0.0498 -0.1063,-0.0114 h -1 l -0.1063,0.0114 -0.1333,0.0498 -0.114,0.0852 -0.0852,0.114 -0.0498,0.1333 -0.0114,0.1063 v 2 l 0.0114,0.1063 0.0498,0.1333 0.0852,0.114 0.114,0.0852 0.1333,0.0498 0.1063,0.0114 h 1 l 0.1063,-0.0114 0.1333,-0.0498 0.114,-0.0852 0.0852,-0.114 0.0498,-0.1333 0.0114,-0.1063 z"
       id="path168-3" />
    <path
       style="fill:#000000;fill-opacity:1;fill-rule:evenodd;stroke:none"
       d="m 169.035,50.69919 v -1.8 h -1.8 v 1.8 z"
       id="path176-7" />
    <circle
       cx="165.59502"
       cy="49.799191"
       r="0.89999998"
       id="circle177-8"
       style="fill:#000000;fill-opacity:1;stroke:none" />
    <path
       style="fill:#000000;fill-opacity:1;fill-rule:evenodd;stroke:none"
       d="m 190.21501,82.14919 v -1.8 H 188.415 v 1.8 z"
       id="path180-8" />
    <circle
       cx="189.31502"
       cy="83.749191"
       r="0.89999998"
       id="circle181-3"
       style="fill:#000000;fill-opacity:1;stroke:none" />
    <circle
       cx="189.31502"
       cy="86.249191"
       r="0.89999998"
       id="circle182-8"
       style="fill:#000000;fill-opacity:1;stroke:none" />
    <path
       style="fill:#000000;fill-opacity:1;fill-rule:evenodd;stroke:none"
       d="m 182.81501,77.99919 -0.0114,-0.1063 -0.0498,-0.1333 -0.0852,-0.114 -0.11401,-0.0852 -0.13329,-0.0498 -0.1063,-0.0114 h -1 l -0.10631,0.0114 -0.13329,0.0498 -0.114,0.0852 -0.0852,0.114 -0.0498,0.1333 -0.0114,0.1063 v 2 l 0.0114,0.1063 0.0498,0.1333 0.0852,0.114 0.114,0.0852 0.13329,0.0498 0.10631,0.0114 h 1 l 0.1063,-0.0114 0.13329,-0.0498 0.11401,-0.0852 0.0852,-0.114 0.0498,-0.1333 0.0114,-0.1063 z"
       id="path182-1" />
    <path
       style="fill:#000000;fill-opacity:1;fill-rule:evenodd;stroke:none"
       d="m 182.81501,87.49919 -0.0114,-0.1063 -0.0498,-0.1333 -0.0852,-0.114 -0.11401,-0.0852 -0.13329,-0.0498 -0.1063,-0.0114 h -1 l -0.10631,0.0114 -0.13329,0.0498 -0.114,0.0852 -0.0852,0.114 -0.0498,0.1333 -0.0114,0.1063 v 2 l 0.0114,0.1063 0.0498,0.1333 0.0852,0.114 0.114,0.0852 0.13329,0.0498 0.10631,0.0114 h 1 l 0.1063,-0.0114 0.13329,-0.0498 0.11401,-0.0852 0.0852,-0.114 0.0498,-0.1333 0.0114,-0.1063 z"
       id="path183-5" />
    <path
       style="fill:#000000;fill-opacity:1;fill-rule:evenodd;stroke:none"
       d="m 175.205,82.15919 v -1.8 h -1.8 v 1.8 z"
       id="path184-3" />
    <circle
       cx="174.30501"
       cy="83.759186"
       r="0.89999998"
       id="circle185-5"
       style="fill:#000000;fill-opacity:1;stroke:none" />
    <circle
       cx="174.30501"
       cy="86.259186"
       r="0.89999998"
       id="circle186-4"
       style="fill:#000000;fill-opacity:1;stroke:none" />
    <path
       style="fill:#000000;fill-opacity:1;fill-rule:evenodd;stroke:none"
       d="m 167.805,78.00919 -0.0114,-0.1063 -0.0498,-0.1333 -0.0852,-0.114 -0.114,-0.0852 -0.1333,-0.0498 -0.1063,-0.0114 h -1 l -0.1063,0.0114 -0.1333,0.0498 -0.114,0.0852 -0.0852,0.114 -0.0498,0.1333 -0.0114,0.1063 v 2 l 0.0114,0.1063 0.0498,0.1333 0.0852,0.114 0.114,0.0852 0.1333,0.0498 0.1063,0.0114 h 1 l 0.1063,-0.0114 0.1333,-0.0498 0.114,-0.0852 0.0852,-0.114 0.0498,-0.1333 0.0114,-0.1063 z"
       id="path186-3" />
    <path
       style="fill:#000000;fill-opacity:1;fill-rule:evenodd;stroke:none"
       d="m 167.805,87.50919 -0.0114,-0.1063 -0.0498,-0.1333 -0.0852,-0.114 -0.114,-0.0852 -0.1333,-0.0498 -0.1063,-0.0114 h -1 l -0.1063,0.0114 -0.1333,0.0498 -0.114,0.0852 -0.0852,0.114 -0.0498,0.1333 -0.0114,0.1063 v 2 l 0.0114,0.1063 0.0498,0.1333 0.0852,0.114 0.114,0.0852 0.1333,0.0498 0.1063,0.0114 h 1 l 0.1063,-0.0114 0.1333,-0.0498 0.114,-0.0852 0.0852,-0.114 0.0498,-0.1333 0.0114,-0.1063 z"
       id="path187-6" />
    <circle
       cx="187.255"
       cy="149.8992"
       r="1.35"
       id="circle191-5"
       style="fill:#000000;fill-opacity:1;stroke:none" />
    <path
       style="fill:#000000;fill-opacity:1;fill-rule:evenodd;stroke:none"
       d="m 150.8,128.39419 v 1.83 h 1.93 v -1.83 z"
       id="path191-9" />
    <circle
       cx="151.76501"
       cy="140.7092"
       r="1.0650001"
       id="circle192-5"
       style="fill:#000000;fill-opacity:1;stroke:none" />
    <circle
       cx="151.76501"
       cy="132.40919"
       r="1.0650001"
       id="circle193-4"
       style="fill:#000000;fill-opacity:1;stroke:none" />
    <path
       style="fill:#000000;fill-opacity:1;fill-rule:evenodd;stroke:none"
       d="m 169.075,150.76919 v -1.8 h -1.8 v 1.8 z"
       id="path230-9" />
    <circle
       cx="165.63501"
       cy="149.8692"
       r="0.89999998"
       id="circle231-1"
       style="fill:#000000;fill-opacity:1;stroke:none" />
    <path
       style="fill:#000000;fill-opacity:1;fill-rule:evenodd;stroke:none"
       d="m 188.165,54.91919 v 1.7 h 1.7 v -1.7 z"
       id="path233-7" />
    <circle
       cx="189.01501"
       cy="58.309189"
       r="0.85000002"
       id="circle234-5"
       style="fill:#000000;fill-opacity:1;stroke:none" />
    <circle
       cx="189.01501"
       cy="60.84919"
       r="0.85000002"
       id="circle235-5"
       style="fill:#000000;fill-opacity:1;stroke:none" />
    <circle
       cx="189.01501"
       cy="63.389191"
       r="0.85000002"
       id="circle236-4"
       style="fill:#000000;fill-opacity:1;stroke:none" />
    <circle
       cx="189.01501"
       cy="65.929192"
       r="0.85000002"
       id="circle237-1"
       style="fill:#000000;fill-opacity:1;stroke:none" />
    <circle
       cx="189.01501"
       cy="68.469193"
       r="0.85000002"
       id="circle238-8"
       style="fill:#000000;fill-opacity:1;stroke:none" />
    <circle
       cx="189.01501"
       cy="71.009193"
       r="0.85000002"
       id="circle239-8"
       style="fill:#000000;fill-opacity:1;stroke:none" />
    <circle
       cx="189.01501"
       cy="73.549194"
       r="0.85000002"
       id="circle240-3"
       style="fill:#000000;fill-opacity:1;stroke:none" />
    <path
       style="fill:#000000;fill-opacity:1;fill-rule:evenodd;stroke:none"
       d="m 188.15501,131.59919 v 1.7 h 1.69999 v -1.7 z"
       id="path256-5" />
    <circle
       cx="189.005"
       cy="134.9892"
       r="0.85000002"
       id="circle257-2"
       style="fill:#000000;fill-opacity:1;stroke:none" />
    <circle
       cx="189.005"
       cy="137.52919"
       r="0.85000002"
       id="circle258-2"
       style="fill:#000000;fill-opacity:1;stroke:none" />
    <path
       style="fill:#000000;fill-opacity:1;fill-rule:evenodd;stroke:none"
       d="m 143.725,88.09919 v 1.7 h 1.7 v -1.7 z"
       id="path258-6" />
    <circle
       cx="144.57501"
       cy="91.489189"
       r="0.85000002"
       id="circle259-6"
       style="fill:#000000;fill-opacity:1;stroke:none" />
    <circle
       cx="144.57501"
       cy="94.02919"
       r="0.85000002"
       id="circle260-7"
       style="fill:#000000;fill-opacity:1;stroke:none" />
    <circle
       cx="144.57501"
       cy="96.569191"
       r="0.85000002"
       id="circle261-8"
       style="fill:#000000;fill-opacity:1;stroke:none" />
    <circle
       cx="144.57501"
       cy="99.109192"
       r="0.85000002"
       id="circle262-4"
       style="fill:#000000;fill-opacity:1;stroke:none" />
    <circle
       cx="144.57501"
       cy="101.64919"
       r="0.85000002"
       id="circle263-1"
       style="fill:#000000;fill-opacity:1;stroke:none" />
    <circle
       cx="144.57501"
       cy="104.18919"
       r="0.85000002"
       id="circle264-7"
       style="fill:#000000;fill-opacity:1;stroke:none" />
    <circle
       cx="144.57501"
       cy="106.72919"
       r="0.85000002"
       id="circle265-1"
       style="fill:#000000;fill-opacity:1;stroke:none" />
    <circle
       cx="144.57501"
       cy="109.26919"
       r="0.85000002"
       id="circle266-8"
       style="fill:#000000;fill-opacity:1;stroke:none" />
  </g>
</svg>
