<?xml version="1.0" standalone="no"?>
 <!DOCTYPE svg PUBLIC "-//W3C//DTD SVG 1.1//EN" 
 "http://www.w3.org/Graphics/SVG/1.1/DTD/svg11.dtd"> 
<svg
  xmlns:svg="http://www.w3.org/2000/svg"
  xmlns="http://www.w3.org/2000/svg"
  xmlns:xlink="http://www.w3.org/1999/xlink"
  xmlns:inkscape="http://www.inkscape.org/namespaces/inkscape"
  version="1.1"
  width="297.0022mm" height="210.0072mm" viewBox="0.0000 0.0000 297.0022 210.0072">
<title>SVG Image created as VCA 1-F_Mask.svg date 2026-07-07T18:57:56 </title>
  <desc>Image generated by PCBNEW </desc>
<g style="fill:#000000; fill-opacity:1.0000;stroke:#000000; stroke-opacity:1.0000;
stroke-linecap:round; stroke-linejoin:round;"
 transform="translate(0 0) scale(1 1)">
</g>
<g style="fill:#000000; fill-opacity:1.0000; stroke:none;">
<circle cx="44.8900" cy="81.6200" r="0.9000" /> 
<circle cx="37.9200" cy="98.7300" r="0.9000" /> 
<circle cx="56.3000" cy="109.1100" r="0.9000" /> 
<circle cx="28.5900" cy="64.8500" r="0.9000" /> 
<circle cx="28.6800" cy="106.4900" r="0.9000" /> 
<circle cx="28.7500" cy="117.1800" r="0.9000" /> 
<circle cx="29.2100" cy="74.7500" r="0.9000" /> 
<circle cx="34.3300" cy="48.3500" r="0.9000" /> 
<circle cx="34.8400" cy="35.5200" r="0.9000" /> 
<circle cx="37.3000" cy="120.6300" r="0.9000" /> 
<circle cx="37.9400" cy="69.9100" r="0.9000" /> 
<circle cx="41.1000" cy="43.2400" r="0.9000" /> 
<circle cx="43.9700" cy="101.5400" r="0.9000" /> 
<circle cx="44.1500" cy="87.0700" r="0.9000" /> 
<circle cx="46.6200" cy="35.5600" r="0.9000" /> 
<circle cx="47.4200" cy="87.0800" r="0.9000" /> 
<circle cx="49.0100" cy="69.9500" r="0.9000" /> 
<circle cx="50.2200" cy="81.1400" r="0.9000" /> 
<circle cx="52.3400" cy="55.9300" r="0.9000" /> 
<circle cx="53.7900" cy="88.1300" r="0.9000" /> 
<circle cx="55.0000" cy="69.7300" r="0.9000" /> 
<circle cx="55.7900" cy="88.2500" r="0.9000" /> 
<circle cx="58.6200" cy="81.2700" r="0.9000" /> 
<circle cx="60.5300" cy="123.2500" r="0.9000" /> 
<circle cx="61.1000" cy="133.9800" r="0.9000" /> 
<circle cx="61.6300" cy="87.5000" r="0.9000" /> 
<circle cx="61.8100" cy="54.2200" r="0.9000" /> 
<circle cx="61.8900" cy="95.8200" r="0.9000" /> 
<circle cx="63.4100" cy="104.1700" r="0.9000" /> 
<circle cx="65.0500" cy="137.5300" r="0.9000" /> 
<circle cx="70.1700" cy="62.0000" r="0.9000" /> 
<circle cx="73.0900" cy="99.5400" r="0.9000" /> 
<circle cx="73.3300" cy="73.8000" r="0.9000" /> 
<circle cx="88.4900" cy="87.3900" r="0.9000" /> 
<circle cx="88.5200" cy="129.2600" r="0.9000" /> 
<circle cx="91.3900" cy="94.8600" r="0.9000" /> 
<circle cx="91.4200" cy="83.1700" r="0.9000" /> 
<circle cx="95.6500" cy="40.3000" r="0.9000" /> 
<circle cx="98.9000" cy="59.4600" r="0.9000" /> 
<circle cx="101.3500" cy="63.4500" r="0.9000" /> 
<circle cx="102.8000" cy="51.8400" r="0.9000" /> 
<circle cx="103.1900" cy="94.2200" r="0.9000" /> 
<circle cx="103.2800" cy="117.0400" r="0.9000" /> 
<circle cx="103.2900" cy="126.3500" r="0.9000" /> 
<circle cx="104.1300" cy="84.1500" r="0.9000" /> 
<circle cx="122.1800" cy="87.4600" r="0.9000" /> 
<circle cx="128.3500" cy="84.0900" r="0.9000" /> 
<circle cx="65.5000" cy="51.5200" r="0.7200" /> 
<circle cx="65.5000" cy="48.9800" r="0.7200" /> 
<circle cx="65.5000" cy="46.4400" r="0.7200" /> 
<circle cx="31.7500" cy="43.2800" r="0.7000" /> 
<circle cx="34.2900" cy="43.2800" r="0.7000" /> 
<circle cx="69.8400" cy="76.4500" r="0.7000" /> 
<circle cx="67.3000" cy="76.4500" r="0.7000" /> 
<circle cx="30.3000" cy="37.2200" r="1.3500" /> 
<path style="fill:#000000; fill-opacity:1.0000; stroke:none;fill-rule:evenodd;"
d="M 126.6950,43.9850
126.6950,45.8150
124.7650,45.8150
124.7650,43.9850
Z" /> 
<circle cx="125.7300" cy="56.3000" r="1.0650" /> 
<circle cx="125.7300" cy="48.0000" r="1.0650" /> 
<circle cx="39.8400" cy="40.6900" r="0.7500" /> 
<circle cx="44.8400" cy="40.6900" r="0.7500" /> 
<circle cx="153.9000" cy="22.9100" r="1.6000" /> 
<circle cx="131.1100" cy="137.4100" r="1.3500" /> 
<circle cx="43.8500" cy="62.9500" r="0.7500" /> 
<circle cx="38.8500" cy="62.9500" r="0.7500" /> 
<circle cx="189.3900" cy="22.9200" r="1.6000" /> 
<circle cx="61.1700" cy="59.4100" r="0.7000" /> 
<circle cx="53.5500" cy="59.4100" r="0.7000" /> 
<circle cx="37.9800" cy="53.4000" r="0.7000" /> 
<circle cx="45.6000" cy="53.4000" r="0.7000" /> 
<path style="fill:#000000; fill-opacity:1.0000; stroke:none;fill-rule:evenodd;"
d="M 27.7000,44.1200
27.7000,42.4200
29.4000,42.4200
29.4000,44.1200
Z" /> 
<circle cx="28.5500" cy="45.8100" r="0.8500" /> 
<circle cx="28.5500" cy="48.3500" r="0.8500" /> 
<circle cx="28.5500" cy="50.8900" r="0.8500" /> 
<circle cx="28.5500" cy="53.4300" r="0.8500" /> 
<circle cx="28.5500" cy="55.9700" r="0.8500" /> 
<circle cx="28.5500" cy="58.5100" r="0.8500" /> 
<circle cx="28.5500" cy="61.0500" r="0.8500" /> 
<path style="fill:#000000; fill-opacity:1.0000; stroke:none;fill-rule:evenodd;"
d="M 102.3100,101.8400
102.3100,100.0400
104.1100,100.0400
104.1100,101.8400
Z" /> 
<circle cx="103.2100" cy="103.4400" r="0.9000" /> 
<circle cx="103.2100" cy="105.9400" r="0.9000" /> 
<path style="fill:#000000; fill-opacity:1.0000; stroke:none;fill-rule:evenodd;"
d="M 109.7100,97.6900
109.7214,97.5837
109.7712,97.4504
109.8564,97.3364
109.9704,97.2512
110.1037,97.2014
110.2100,97.1900
111.2100,97.1900
111.3163,97.2014
111.4496,97.2512
111.5636,97.3364
111.6488,97.4504
111.6986,97.5837
111.7100,97.6900
111.7100,99.6900
111.6986,99.7963
111.6488,99.9296
111.5636,100.0436
111.4496,100.1288
111.3163,100.1786
111.2100,100.1900
110.2100,100.1900
110.1037,100.1786
109.9704,100.1288
109.8564,100.0436
109.7712,99.9296
109.7214,99.7963
109.7100,99.6900
Z" /> 
<path style="fill:#000000; fill-opacity:1.0000; stroke:none;fill-rule:evenodd;"
d="M 109.7100,107.1900
109.7214,107.0837
109.7712,106.9504
109.8564,106.8364
109.9704,106.7512
110.1037,106.7014
110.2100,106.6900
111.2100,106.6900
111.3163,106.7014
111.4496,106.7512
111.5636,106.8364
111.6488,106.9504
111.6986,107.0837
111.7100,107.1900
111.7100,109.1900
111.6986,109.2963
111.6488,109.4296
111.5636,109.5436
111.4496,109.6288
111.3163,109.6786
111.2100,109.6900
110.2100,109.6900
110.1037,109.6786
109.9704,109.6288
109.8564,109.5436
109.7712,109.4296
109.7214,109.2963
109.7100,109.1900
Z" /> 
<circle cx="39.3100" cy="55.9700" r="0.7000" /> 
<circle cx="31.6900" cy="55.9700" r="0.7000" /> 
<circle cx="58.4100" cy="86.0500" r="0.7000" /> 
<circle cx="58.4100" cy="88.5900" r="0.7000" /> 
<path style="fill:#000000; fill-opacity:1.0000; stroke:none;fill-rule:evenodd;"
d="M 64.4600,102.6300
64.4600,101.1300
65.9600,101.1300
65.9600,102.6300
Z" /> 
<circle cx="67.7500" cy="101.8800" r="0.7500" /> 
<circle cx="70.2900" cy="101.8800" r="0.7500" /> 
<circle cx="31.7500" cy="53.4000" r="0.7000" /> 
<circle cx="34.2900" cy="53.4000" r="0.7000" /> 
<circle cx="64.8700" cy="41.2500" r="0.7200" /> 
<circle cx="62.3300" cy="41.2500" r="0.7200" /> 
<circle cx="59.7900" cy="41.2500" r="0.7200" /> 
<path style="fill:#000000; fill-opacity:1.0000; stroke:none;fill-rule:evenodd;"
d="M 61.6100,127.3600
61.5910,127.4557
61.5368,127.5368
61.4557,127.5910
61.3600,127.6100
59.6600,127.6100
59.5643,127.5910
59.4832,127.5368
59.4290,127.4557
59.4100,127.3600
59.4100,125.6600
59.4290,125.5643
59.4832,125.4832
59.5643,125.4290
59.6600,125.4100
61.3600,125.4100
61.4557,125.4290
61.5368,125.4832
61.5910,125.5643
61.6100,125.6600
Z" /> 
<circle cx="50.3500" cy="126.5100" r="1.1000" /> 
<path style="fill:#000000; fill-opacity:1.0000; stroke:none;fill-rule:evenodd;"
d="M 43.9600,130.3100
43.8643,130.2910
43.7832,130.2368
43.7290,130.1557
43.7100,130.0600
43.7100,128.9600
43.7290,128.8643
43.7832,128.7832
43.8643,128.7290
43.9600,128.7100
45.0600,128.7100
45.1557,128.7290
45.2368,128.7832
45.2910,128.8643
45.3100,128.9600
45.3100,130.0600
45.2910,130.1557
45.2368,130.2368
45.1557,130.2910
45.0600,130.3100
Z" /> 
<circle cx="44.5100" cy="127.0100" r="0.8000" /> 
<circle cx="69.9000" cy="84.1600" r="0.7000" /> 
<circle cx="62.2800" cy="84.1600" r="0.7000" /> 
<path style="fill:#000000; fill-opacity:1.0000; stroke:none;fill-rule:evenodd;"
d="M 57.1600,65.0900
57.2557,65.1090
57.3368,65.1632
57.3910,65.2443
57.4100,65.3400
57.4100,66.4400
57.3910,66.5357
57.3368,66.6168
57.2557,66.6710
57.1600,66.6900
56.0600,66.6900
55.9643,66.6710
55.8832,66.6168
55.8290,66.5357
55.8100,66.4400
55.8100,65.3400
55.8290,65.2443
55.8832,65.1632
55.9643,65.1090
56.0600,65.0900
Z" /> 
<circle cx="54.0700" cy="65.8900" r="0.8000" /> 
<circle cx="51.5300" cy="65.8900" r="0.8000" /> 
<circle cx="48.9900" cy="65.8900" r="0.8000" /> 
<circle cx="46.4500" cy="65.8900" r="0.8000" /> 
<circle cx="43.9100" cy="65.8900" r="0.8000" /> 
<circle cx="41.3700" cy="65.8900" r="0.8000" /> 
<circle cx="41.3700" cy="73.5100" r="0.8000" /> 
<circle cx="43.9100" cy="73.5100" r="0.8000" /> 
<circle cx="46.4500" cy="73.5100" r="0.8000" /> 
<circle cx="48.9900" cy="73.5100" r="0.8000" /> 
<circle cx="51.5300" cy="73.5100" r="0.8000" /> 
<circle cx="54.0700" cy="73.5100" r="0.8000" /> 
<circle cx="56.6100" cy="73.5100" r="0.8000" /> 
<circle cx="37.3100" cy="131.0100" r="0.8000" /> 
<circle cx="37.3100" cy="126.0100" r="0.8000" /> 
<circle cx="31.7800" cy="50.8700" r="0.7000" /> 
<circle cx="34.3200" cy="50.8700" r="0.7000" /> 
<circle cx="36.9000" cy="43.2400" r="0.7000" /> 
<circle cx="36.9000" cy="40.7000" r="0.7000" /> 
<path style="fill:#000000; fill-opacity:1.0000; stroke:none;fill-rule:evenodd;"
d="M 87.2400,101.8000
87.2400,100.0000
89.0400,100.0000
89.0400,101.8000
Z" /> 
<circle cx="88.1400" cy="103.4000" r="0.9000" /> 
<circle cx="88.1400" cy="105.9000" r="0.9000" /> 
<path style="fill:#000000; fill-opacity:1.0000; stroke:none;fill-rule:evenodd;"
d="M 94.6400,97.6500
94.6514,97.5437
94.7012,97.4104
94.7864,97.2964
94.9004,97.2112
95.0337,97.1614
95.1400,97.1500
96.1400,97.1500
96.2463,97.1614
96.3796,97.2112
96.4936,97.2964
96.5788,97.4104
96.6286,97.5437
96.6400,97.6500
96.6400,99.6500
96.6286,99.7563
96.5788,99.8896
96.4936,100.0036
96.3796,100.0888
96.2463,100.1386
96.1400,100.1500
95.1400,100.1500
95.0337,100.1386
94.9004,100.0888
94.7864,100.0036
94.7012,99.8896
94.6514,99.7563
94.6400,99.6500
Z" /> 
<path style="fill:#000000; fill-opacity:1.0000; stroke:none;fill-rule:evenodd;"
d="M 94.6400,107.1500
94.6514,107.0437
94.7012,106.9104
94.7864,106.7964
94.9004,106.7112
95.0337,106.6614
95.1400,106.6500
96.1400,106.6500
96.2463,106.6614
96.3796,106.7112
96.4936,106.7964
96.5788,106.9104
96.6286,107.0437
96.6400,107.1500
96.6400,109.1500
96.6286,109.2563
96.5788,109.3896
96.4936,109.5036
96.3796,109.5888
96.2463,109.6386
96.1400,109.6500
95.1400,109.6500
95.0337,109.6386
94.9004,109.5888
94.7864,109.5036
94.7012,109.3896
94.6514,109.2563
94.6400,109.1500
Z" /> 
<path style="fill:#000000; fill-opacity:1.0000; stroke:none;fill-rule:evenodd;"
d="M 111.6450,43.9850
111.6450,45.8150
109.7150,45.8150
109.7150,43.9850
Z" /> 
<circle cx="110.6800" cy="56.3000" r="1.0650" /> 
<circle cx="110.6800" cy="48.0000" r="1.0650" /> 
<circle cx="30.3200" cy="137.4400" r="1.3500" /> 
<circle cx="131.1100" cy="37.2300" r="1.3500" /> 
<circle cx="90.2700" cy="37.2100" r="1.3500" /> 
<circle cx="51.5500" cy="79.4400" r="0.7000" /> 
<circle cx="54.0900" cy="79.4400" r="0.7000" /> 
<path style="fill:#000000; fill-opacity:1.0000; stroke:none;fill-rule:evenodd;"
d="M 96.6350,115.8950
96.6350,117.7250
94.7050,117.7250
94.7050,115.8950
Z" /> 
<circle cx="95.6700" cy="128.2100" r="1.0650" /> 
<circle cx="95.6700" cy="119.9100" r="1.0650" /> 
<circle cx="66.6300" cy="96.8200" r="0.7000" /> 
<circle cx="69.1700" cy="96.8200" r="0.7000" /> 
<circle cx="47.6800" cy="81.8100" r="0.8000" /> 
<circle cx="47.6800" cy="76.8100" r="0.8000" /> 
<path style="fill:#000000; fill-opacity:1.0000; stroke:none;fill-rule:evenodd;"
d="M 96.7150,43.9750
96.7150,45.8050
94.7850,45.8050
94.7850,43.9750
Z" /> 
<circle cx="95.7500" cy="56.2900" r="1.0650" /> 
<circle cx="95.7500" cy="47.9900" r="1.0650" /> 
<circle cx="54.3700" cy="41.3100" r="0.7200" /> 
<circle cx="51.8300" cy="41.3100" r="0.7200" /> 
<circle cx="49.2900" cy="41.3100" r="0.7200" /> 
<circle cx="48.2400" cy="63.0600" r="0.8000" /> 
<circle cx="48.2400" cy="58.0600" r="0.8000" /> 
<circle cx="54.6300" cy="134.0600" r="0.7000" /> 
<circle cx="52.0900" cy="134.0600" r="0.7000" /> 
<circle cx="61.2600" cy="48.8700" r="0.7000" /> 
<circle cx="53.6400" cy="48.8700" r="0.7000" /> 
<circle cx="49.7300" cy="45.4200" r="0.7000" /> 
<circle cx="49.7300" cy="53.0400" r="0.7000" /> 
<circle cx="44.4700" cy="49.7000" r="0.7500" /> 
<circle cx="39.4700" cy="49.7000" r="0.7500" /> 
<circle cx="47.7900" cy="109.1400" r="0.7000" /> 
<circle cx="47.7900" cy="101.5200" r="0.7000" /> 
<path style="fill:#000000; fill-opacity:1.0000; stroke:none;fill-rule:evenodd;"
d="M 117.3550,69.6700
117.3550,67.8700
119.1550,67.8700
119.1550,69.6700
Z" /> 
<circle cx="118.2550" cy="71.2700" r="0.9000" /> 
<circle cx="118.2550" cy="73.7700" r="0.9000" /> 
<path style="fill:#000000; fill-opacity:1.0000; stroke:none;fill-rule:evenodd;"
d="M 124.7550,65.5200
124.7664,65.4137
124.8162,65.2804
124.9014,65.1664
125.0154,65.0812
125.1487,65.0314
125.2550,65.0200
126.2550,65.0200
126.3613,65.0314
126.4946,65.0812
126.6086,65.1664
126.6938,65.2804
126.7436,65.4137
126.7550,65.5200
126.7550,67.5200
126.7436,67.6263
126.6938,67.7596
126.6086,67.8736
126.4946,67.9588
126.3613,68.0086
126.2550,68.0200
125.2550,68.0200
125.1487,68.0086
125.0154,67.9588
124.9014,67.8736
124.8162,67.7596
124.7664,67.6263
124.7550,67.5200
Z" /> 
<path style="fill:#000000; fill-opacity:1.0000; stroke:none;fill-rule:evenodd;"
d="M 124.7550,75.0200
124.7664,74.9137
124.8162,74.7804
124.9014,74.6664
125.0154,74.5812
125.1487,74.5314
125.2550,74.5200
126.2550,74.5200
126.3613,74.5314
126.4946,74.5812
126.6086,74.6664
126.6938,74.7804
126.7436,74.9137
126.7550,75.0200
126.7550,77.0200
126.7436,77.1263
126.6938,77.2596
126.6086,77.3736
126.4946,77.4588
126.3613,77.5086
126.2550,77.5200
125.2550,77.5200
125.1487,77.5086
125.0154,77.4588
124.9014,77.3736
124.8162,77.2596
124.7664,77.1263
124.7550,77.0200
Z" /> 
<circle cx="37.3100" cy="134.1100" r="0.8000" /> 
<circle cx="37.3100" cy="139.1100" r="0.8000" /> 
<circle cx="58.4100" cy="101.7700" r="0.8000" /> 
<circle cx="58.4100" cy="106.7700" r="0.8000" /> 
<circle cx="189.4000" cy="145.4100" r="1.6000" /> 
<path style="fill:#000000; fill-opacity:1.0000; stroke:none;fill-rule:evenodd;"
d="M 111.6550,115.9050
111.6550,117.7350
109.7250,117.7350
109.7250,115.9050
Z" /> 
<circle cx="110.6900" cy="128.2200" r="1.0650" /> 
<circle cx="110.6900" cy="119.9200" r="1.0650" /> 
<circle cx="37.7554" cy="79.3946" r="0.7000" /> 
<circle cx="30.1354" cy="79.3946" r="0.7000" /> 
<circle cx="39.4400" cy="87.4200" r="0.7000" /> 
<circle cx="31.8200" cy="87.4200" r="0.7000" /> 
<path style="fill:#000000; fill-opacity:1.0000; stroke:none;fill-rule:evenodd;"
d="M 117.4100,101.8300
117.4100,100.0300
119.2100,100.0300
119.2100,101.8300
Z" /> 
<circle cx="118.3100" cy="103.4300" r="0.9000" /> 
<circle cx="118.3100" cy="105.9300" r="0.9000" /> 
<path style="fill:#000000; fill-opacity:1.0000; stroke:none;fill-rule:evenodd;"
d="M 124.8100,97.6800
124.8214,97.5737
124.8712,97.4404
124.9564,97.3264
125.0704,97.2412
125.2037,97.1914
125.3100,97.1800
126.3100,97.1800
126.4163,97.1914
126.5496,97.2412
126.6636,97.3264
126.7488,97.4404
126.7986,97.5737
126.8100,97.6800
126.8100,99.6800
126.7986,99.7863
126.7488,99.9196
126.6636,100.0336
126.5496,100.1188
126.4163,100.1686
126.3100,100.1800
125.3100,100.1800
125.2037,100.1686
125.0704,100.1188
124.9564,100.0336
124.8712,99.9196
124.8214,99.7863
124.8100,99.6800
Z" /> 
<path style="fill:#000000; fill-opacity:1.0000; stroke:none;fill-rule:evenodd;"
d="M 124.8100,107.1800
124.8214,107.0737
124.8712,106.9404
124.9564,106.8264
125.0704,106.7412
125.2037,106.6914
125.3100,106.6800
126.3100,106.6800
126.4163,106.6914
126.5496,106.7412
126.6636,106.8264
126.7488,106.9404
126.7986,107.0737
126.8100,107.1800
126.8100,109.1800
126.7986,109.2863
126.7488,109.4196
126.6636,109.5336
126.5496,109.6188
126.4163,109.6686
126.3100,109.6800
125.3100,109.6800
125.2037,109.6686
125.0704,109.6188
124.9564,109.5336
124.8712,109.4196
124.8214,109.2863
124.8100,109.1800
Z" /> 
<circle cx="51.5200" cy="62.4500" r="0.7500" /> 
<circle cx="56.5200" cy="62.4500" r="0.7500" /> 
<circle cx="50.7800" cy="109.1400" r="0.7000" /> 
<circle cx="50.7800" cy="101.5200" r="0.7000" /> 
<path style="fill:#000000; fill-opacity:1.0000; stroke:none;fill-rule:evenodd;"
d="M 27.7000,120.8200
27.7000,119.1200
29.4000,119.1200
29.4000,120.8200
Z" /> 
<circle cx="28.5500" cy="122.5100" r="0.8500" /> 
<circle cx="28.5500" cy="125.0500" r="0.8500" /> 
<circle cx="51.5500" cy="76.5500" r="0.7500" /> 
<circle cx="56.5500" cy="76.5500" r="0.7500" /> 
<circle cx="71.1400" cy="37.2300" r="1.3500" /> 
<path style="fill:#000000; fill-opacity:1.0000; stroke:none;fill-rule:evenodd;"
d="M 108.4900,38.2100
108.4900,36.4100
110.2900,36.4100
110.2900,38.2100
Z" /> 
<circle cx="111.9300" cy="37.3100" r="0.9000" /> 
<path style="fill:#000000; fill-opacity:1.0000; stroke:none;fill-rule:evenodd;"
d="M 49.8500,136.2600
49.8690,136.1643
49.9232,136.0832
50.0043,136.0290
50.1000,136.0100
51.8000,136.0100
51.8957,136.0290
51.9768,136.0832
52.0310,136.1643
52.0500,136.2600
52.0500,137.9600
52.0310,138.0557
51.9768,138.1368
51.8957,138.1910
51.8000,138.2100
50.1000,138.2100
50.0043,138.1910
49.9232,138.1368
49.8690,138.0557
49.8500,137.9600
Z" /> 
<circle cx="61.1100" cy="137.1100" r="1.1000" /> 
<circle cx="44.0600" cy="79.3900" r="0.7000" /> 
<circle cx="41.5200" cy="79.3900" r="0.7000" /> 
<path style="fill:#000000; fill-opacity:1.0000; stroke:none;fill-rule:evenodd;"
d="M 87.3100,69.6600
87.3100,67.8600
89.1100,67.8600
89.1100,69.6600
Z" /> 
<circle cx="88.2100" cy="71.2600" r="0.9000" /> 
<circle cx="88.2100" cy="73.7600" r="0.9000" /> 
<path style="fill:#000000; fill-opacity:1.0000; stroke:none;fill-rule:evenodd;"
d="M 94.7100,65.5100
94.7214,65.4037
94.7712,65.2704
94.8564,65.1564
94.9704,65.0712
95.1037,65.0214
95.2100,65.0100
96.2100,65.0100
96.3163,65.0214
96.4496,65.0712
96.5636,65.1564
96.6488,65.2704
96.6986,65.4037
96.7100,65.5100
96.7100,67.5100
96.6986,67.6163
96.6488,67.7496
96.5636,67.8636
96.4496,67.9488
96.3163,67.9986
96.2100,68.0100
95.2100,68.0100
95.1037,67.9986
94.9704,67.9488
94.8564,67.8636
94.7712,67.7496
94.7214,67.6163
94.7100,67.5100
Z" /> 
<path style="fill:#000000; fill-opacity:1.0000; stroke:none;fill-rule:evenodd;"
d="M 94.7100,75.0100
94.7214,74.9037
94.7712,74.7704
94.8564,74.6564
94.9704,74.5712
95.1037,74.5214
95.2100,74.5100
96.2100,74.5100
96.3163,74.5214
96.4496,74.5712
96.5636,74.6564
96.6488,74.7704
96.6986,74.9037
96.7100,75.0100
96.7100,77.0100
96.6986,77.1163
96.6488,77.2496
96.5636,77.3636
96.4496,77.4488
96.3163,77.4986
96.2100,77.5100
95.2100,77.5100
95.1037,77.4986
94.9704,77.4488
94.8564,77.3636
94.7712,77.2496
94.7214,77.1163
94.7100,77.0100
Z" /> 
<circle cx="40.5900" cy="101.5200" r="0.8000" /> 
<circle cx="40.5900" cy="106.5200" r="0.8000" /> 
<path style="fill:#000000; fill-opacity:1.0000; stroke:none;fill-rule:evenodd;"
d="M 102.3200,69.6700
102.3200,67.8700
104.1200,67.8700
104.1200,69.6700
Z" /> 
<circle cx="103.2200" cy="71.2700" r="0.9000" /> 
<circle cx="103.2200" cy="73.7700" r="0.9000" /> 
<path style="fill:#000000; fill-opacity:1.0000; stroke:none;fill-rule:evenodd;"
d="M 109.7200,65.5200
109.7314,65.4137
109.7812,65.2804
109.8664,65.1664
109.9804,65.0812
110.1137,65.0314
110.2200,65.0200
111.2200,65.0200
111.3263,65.0314
111.4596,65.0812
111.5736,65.1664
111.6588,65.2804
111.7086,65.4137
111.7200,65.5200
111.7200,67.5200
111.7086,67.6263
111.6588,67.7596
111.5736,67.8736
111.4596,67.9588
111.3263,68.0086
111.2200,68.0200
110.2200,68.0200
110.1137,68.0086
109.9804,67.9588
109.8664,67.8736
109.7812,67.7596
109.7314,67.6263
109.7200,67.5200
Z" /> 
<path style="fill:#000000; fill-opacity:1.0000; stroke:none;fill-rule:evenodd;"
d="M 109.7200,75.0200
109.7314,74.9137
109.7812,74.7804
109.8664,74.6664
109.9804,74.5812
110.1137,74.5314
110.2200,74.5200
111.2200,74.5200
111.3263,74.5314
111.4596,74.5812
111.5736,74.6664
111.6588,74.7804
111.7086,74.9137
111.7200,75.0200
111.7200,77.0200
111.7086,77.1263
111.6588,77.2596
111.5736,77.3736
111.4596,77.4588
111.3263,77.5086
111.2200,77.5200
110.2200,77.5200
110.1137,77.5086
109.9804,77.4588
109.8664,77.3736
109.7812,77.2596
109.7314,77.1263
109.7200,77.0200
Z" /> 
<circle cx="65.5800" cy="62.0000" r="0.7200" /> 
<circle cx="65.5800" cy="59.4600" r="0.7200" /> 
<circle cx="65.5800" cy="56.9200" r="0.7200" /> 
<circle cx="71.1500" cy="137.4500" r="1.3500" /> 
<circle cx="90.2700" cy="137.4100" r="1.3500" /> 
<path style="fill:#000000; fill-opacity:1.0000; stroke:none;fill-rule:evenodd;"
d="M 126.7250,115.9050
126.7250,117.7350
124.7950,117.7350
124.7950,115.9050
Z" /> 
<circle cx="125.7600" cy="128.2200" r="1.0650" /> 
<circle cx="125.7600" cy="119.9200" r="1.0650" /> 
<path style="fill:#000000; fill-opacity:1.0000; stroke:none;fill-rule:evenodd;"
d="M 72.1500,77.3200
72.1500,75.6200
73.8500,75.6200
73.8500,77.3200
Z" /> 
<circle cx="73.0000" cy="79.0100" r="0.8500" /> 
<circle cx="73.0000" cy="81.5500" r="0.8500" /> 
<circle cx="73.0000" cy="84.0900" r="0.8500" /> 
<circle cx="73.0000" cy="86.6300" r="0.8500" /> 
<circle cx="73.0000" cy="89.1700" r="0.8500" /> 
<circle cx="73.0000" cy="91.7100" r="0.8500" /> 
<circle cx="73.0000" cy="94.2500" r="0.8500" /> 
<circle cx="73.0000" cy="96.7900" r="0.8500" /> 
<path style="fill:#000000; fill-opacity:1.0000; stroke:none;fill-rule:evenodd;"
d="M 66.1600,72.4600
66.1600,70.9600
67.6600,70.9600
67.6600,72.4600
Z" /> 
<circle cx="69.4500" cy="71.7100" r="0.7500" /> 
<circle cx="71.9900" cy="71.7100" r="0.7500" /> 
<circle cx="31.6800" cy="45.7300" r="0.7000" /> 
<circle cx="34.2200" cy="45.7300" r="0.7000" /> 
<path style="fill:#000000; fill-opacity:1.0000; stroke:none;fill-rule:evenodd;"
d="M 45.2600,133.3100
45.3557,133.3290
45.4368,133.3832
45.4910,133.4643
45.5100,133.5600
45.5100,134.6600
45.4910,134.7557
45.4368,134.8368
45.3557,134.8910
45.2600,134.9100
44.1600,134.9100
44.0643,134.8910
43.9832,134.8368
43.9290,134.7557
43.9100,134.6600
43.9100,133.5600
43.9290,133.4643
43.9832,133.3832
44.0643,133.3290
44.1600,133.3100
Z" /> 
<circle cx="44.7100" cy="136.6100" r="0.8000" /> 
<path style="fill:#000000; fill-opacity:1.0000; stroke:none;fill-rule:evenodd;"
d="M 58.9300,90.3700
59.0257,90.3890
59.1068,90.4432
59.1610,90.5243
59.1800,90.6200
59.1800,91.7200
59.1610,91.8157
59.1068,91.8968
59.0257,91.9510
58.9300,91.9700
57.8300,91.9700
57.7343,91.9510
57.6532,91.8968
57.5990,91.8157
57.5800,91.7200
57.5800,90.6200
57.5990,90.5243
57.6532,90.4432
57.7343,90.3890
57.8300,90.3700
Z" /> 
<circle cx="55.8400" cy="91.1700" r="0.8000" /> 
<circle cx="53.3000" cy="91.1700" r="0.8000" /> 
<circle cx="50.7600" cy="91.1700" r="0.8000" /> 
<circle cx="48.2200" cy="91.1700" r="0.8000" /> 
<circle cx="45.6800" cy="91.1700" r="0.8000" /> 
<circle cx="43.1400" cy="91.1700" r="0.8000" /> 
<circle cx="40.6000" cy="91.1700" r="0.8000" /> 
<circle cx="40.6000" cy="98.7900" r="0.8000" /> 
<circle cx="43.1400" cy="98.7900" r="0.8000" /> 
<circle cx="45.6800" cy="98.7900" r="0.8000" /> 
<circle cx="48.2200" cy="98.7900" r="0.8000" /> 
<circle cx="50.7600" cy="98.7900" r="0.8000" /> 
<circle cx="53.3000" cy="98.7900" r="0.8000" /> 
<circle cx="55.8400" cy="98.7900" r="0.8000" /> 
<circle cx="58.3800" cy="98.7900" r="0.8000" /> 
<circle cx="32.0100" cy="61.0600" r="0.7000" /> 
<circle cx="32.0100" cy="63.6000" r="0.7000" /> 
<circle cx="44.0100" cy="76.5700" r="0.7500" /> 
<circle cx="39.0100" cy="76.5700" r="0.7500" /> 
<circle cx="69.8700" cy="81.5300" r="0.7000" /> 
<circle cx="62.2500" cy="81.5300" r="0.7000" /> 
<circle cx="60.1300" cy="45.5500" r="0.7000" /> 
<circle cx="57.5900" cy="45.5500" r="0.7000" /> 
<circle cx="153.9000" cy="145.4100" r="1.6000" /> 
<path style="fill:#000000; fill-opacity:1.0000; stroke:none;fill-rule:evenodd;"
d="M 108.4500,138.2800
108.4500,136.4800
110.2500,136.4800
110.2500,138.2800
Z" /> 
<circle cx="111.8900" cy="137.3800" r="0.9000" /> 
<circle cx="58.1700" cy="129.5100" r="0.7000" /> 
<circle cx="55.6300" cy="129.5100" r="0.7000" /> 
<path style="fill:#000000; fill-opacity:1.0000; stroke:none;fill-rule:evenodd;"
d="M 89.3600,42.4300
89.3600,44.1300
87.6600,44.1300
87.6600,42.4300
Z" /> 
<circle cx="88.5100" cy="45.8200" r="0.8500" /> 
<circle cx="88.5100" cy="48.3600" r="0.8500" /> 
<circle cx="88.5100" cy="50.9000" r="0.8500" /> 
<circle cx="88.5100" cy="53.4400" r="0.8500" /> 
<circle cx="88.5100" cy="55.9800" r="0.8500" /> 
<circle cx="88.5100" cy="58.5200" r="0.8500" /> 
<circle cx="88.5100" cy="61.0600" r="0.8500" /> 
<circle cx="28.6924" cy="109.1900" r="1.0000" /> 
<path style="fill:#000000; fill-opacity:1.0000; stroke:none;fill-rule:evenodd;"
d="M 71.2300,111.5000
71.2110,111.5957
71.1568,111.6768
71.0757,111.7310
70.9800,111.7500
69.7800,111.7500
69.6843,111.7310
69.6032,111.6768
69.5490,111.5957
69.5300,111.5000
69.5300,110.3000
69.5490,110.2043
69.6032,110.1232
69.6843,110.0690
69.7800,110.0500
70.9800,110.0500
71.0757,110.0690
71.1568,110.1232
71.2110,110.2043
71.2300,110.3000
Z" /> 
<circle cx="67.8400" cy="110.9000" r="0.8500" /> 
<circle cx="70.3800" cy="113.4400" r="0.8500" /> 
<circle cx="67.8400" cy="113.4400" r="0.8500" /> 
<circle cx="70.3800" cy="115.9800" r="0.8500" /> 
<circle cx="67.8400" cy="115.9800" r="0.8500" /> 
<circle cx="70.3800" cy="118.5200" r="0.8500" /> 
<circle cx="67.8400" cy="118.5200" r="0.8500" /> 
<circle cx="70.3800" cy="121.0600" r="0.8500" /> 
<circle cx="67.8400" cy="121.0600" r="0.8500" /> 
<circle cx="70.3800" cy="123.6000" r="0.8500" /> 
<circle cx="67.8400" cy="123.6000" r="0.8500" /> 
<circle cx="70.3800" cy="126.1400" r="0.8500" /> 
<circle cx="67.8400" cy="126.1400" r="0.8500" /> 
<circle cx="70.3800" cy="128.6800" r="0.8500" /> 
<circle cx="67.8400" cy="128.6800" r="0.8500" /> 
<path style="fill:#000000; fill-opacity:1.0000; stroke:none;fill-rule:evenodd;"
d="M 89.3700,119.1100
89.3700,120.8100
87.6700,120.8100
87.6700,119.1100
Z" /> 
<circle cx="88.5200" cy="122.5000" r="0.8500" /> 
<circle cx="88.5200" cy="125.0400" r="0.8500" /> 
<path style="fill:#000000; fill-opacity:1.0000; stroke:none;fill-rule:evenodd;"
d="M 133.8000,75.6100
133.8000,77.3100
132.1000,77.3100
132.1000,75.6100
Z" /> 
<circle cx="132.9500" cy="79.0000" r="0.8500" /> 
<circle cx="132.9500" cy="81.5400" r="0.8500" /> 
<circle cx="132.9500" cy="84.0800" r="0.8500" /> 
<circle cx="132.9500" cy="86.6200" r="0.8500" /> 
<circle cx="132.9500" cy="89.1600" r="0.8500" /> 
<circle cx="132.9500" cy="91.7000" r="0.8500" /> 
<circle cx="132.9500" cy="94.2400" r="0.8500" /> 
<circle cx="132.9500" cy="96.7800" r="0.8500" /> 
<circle cx="73.2300" cy="68.9700" r="1.0000" /> 
<circle cx="28.5700" cy="67.8200" r="1.0000" /> 
<circle cx="39.6800" cy="35.5300" r="1.0000" /> 
<circle cx="28.6300" cy="130.7400" r="1.0000" /> 
<circle cx="73.1000" cy="103.0000" r="1.0000" /> 
<circle cx="28.7624" cy="114.5400" r="1.0000" /> 
</g> 
</svg>
