<?xml version="1.0" standalone="no"?>
 <!DOCTYPE svg PUBLIC "-//W3C//DTD SVG 1.1//EN" 
 "http://www.w3.org/Graphics/SVG/1.1/DTD/svg11.dtd"> 
<svg
  xmlns:svg="http://www.w3.org/2000/svg"
  xmlns="http://www.w3.org/2000/svg"
  xmlns:xlink="http://www.w3.org/1999/xlink"
  xmlns:inkscape="http://www.inkscape.org/namespaces/inkscape"
  version="1.1"
  width="297.0022mm" height="210.0072mm" viewBox="0.0000 0.0000 297.0022 210.0072">
<title>SVG Image created as VCA 1-B_Mask.svg date 2026-07-07T18:58:02 </title>
  <desc>Image generated by PCBNEW </desc>
<g style="fill:#000000; fill-opacity:1.0000;stroke:#000000; stroke-opacity:1.0000;
stroke-linecap:round; stroke-linejoin:round;"
 transform="translate(0 0) scale(1 1)">
</g>
<g style="fill:#000000; fill-opacity:1.0000; stroke:none;">
<circle cx="252.1122" cy="81.5712" r="0.9088" /> 
<circle cx="259.1022" cy="98.7712" r="0.9088" /> 
<circle cx="240.7022" cy="109.1012" r="0.9088" /> 
<circle cx="268.3822" cy="64.8412" r="0.9088" /> 
<circle cx="268.3122" cy="106.4612" r="0.9088" /> 
<circle cx="268.2522" cy="117.1612" r="0.9088" /> 
<circle cx="267.7922" cy="74.7312" r="0.9088" /> 
<circle cx="262.6522" cy="48.3612" r="0.9088" /> 
<circle cx="262.1422" cy="35.5312" r="0.9088" /> 
<circle cx="259.7022" cy="120.6212" r="0.9088" /> 
<circle cx="259.0322" cy="69.9112" r="0.9088" /> 
<circle cx="255.8922" cy="43.2512" r="0.9088" /> 
<circle cx="253.0322" cy="101.5212" r="0.9088" /> 
<circle cx="252.8522" cy="87.0712" r="0.9088" /> 
<circle cx="250.3822" cy="35.5612" r="0.9088" /> 
<circle cx="249.5722" cy="87.0712" r="0.9088" /> 
<circle cx="248.0022" cy="69.9312" r="0.9088" /> 
<circle cx="246.7822" cy="81.1412" r="0.9088" /> 
<circle cx="244.6622" cy="55.9512" r="0.9088" /> 
<circle cx="243.1922" cy="88.1212" r="0.9088" /> 
<circle cx="242.0022" cy="69.7312" r="0.9088" /> 
<circle cx="241.1922" cy="88.2212" r="0.9088" /> 
<circle cx="238.3622" cy="81.2512" r="0.9088" /> 
<circle cx="236.4822" cy="123.2412" r="0.9088" /> 
<circle cx="235.8722" cy="133.9812" r="0.9088" /> 
<circle cx="235.3822" cy="87.5012" r="0.9088" /> 
<circle cx="235.2122" cy="54.2212" r="0.9088" /> 
<circle cx="235.0922" cy="95.8412" r="0.9088" /> 
<circle cx="233.5922" cy="104.1712" r="0.9088" /> 
<circle cx="231.9822" cy="137.5212" r="0.9088" /> 
<circle cx="226.8522" cy="62.0012" r="0.9088" /> 
<circle cx="223.8922" cy="99.5412" r="0.9088" /> 
<circle cx="223.6822" cy="73.7812" r="0.9088" /> 
<circle cx="208.5022" cy="87.3812" r="0.9088" /> 
<circle cx="208.4722" cy="129.2512" r="0.9088" /> 
<circle cx="205.6122" cy="94.8612" r="0.9088" /> 
<circle cx="205.5822" cy="83.1512" r="0.9088" /> 
<circle cx="201.3522" cy="40.2912" r="0.9088" /> 
<circle cx="198.0922" cy="59.4512" r="0.9088" /> 
<circle cx="195.6322" cy="63.4312" r="0.9088" /> 
<circle cx="194.1822" cy="51.8012" r="0.9088" /> 
<circle cx="193.8022" cy="94.2112" r="0.9088" /> 
<circle cx="193.7222" cy="117.0312" r="0.9088" /> 
<circle cx="193.6822" cy="126.3412" r="0.9088" /> 
<circle cx="192.8522" cy="84.1412" r="0.9088" /> 
<circle cx="174.8022" cy="87.4512" r="0.9088" /> 
<circle cx="168.6422" cy="84.0812" r="0.9088" /> 
<circle cx="231.5022" cy="51.5200" r="0.7200" /> 
<circle cx="231.5022" cy="48.9800" r="0.7200" /> 
<circle cx="231.5022" cy="46.4400" r="0.7200" /> 
<circle cx="265.2522" cy="43.2800" r="0.7000" /> 
<circle cx="262.7122" cy="43.2800" r="0.7000" /> 
<circle cx="227.1622" cy="76.4500" r="0.7000" /> 
<circle cx="229.7022" cy="76.4500" r="0.7000" /> 
<circle cx="266.7022" cy="37.2200" r="1.3500" /> 
<path style="fill:#000000; fill-opacity:1.0000; stroke:none;fill-rule:evenodd;"
d="M 170.3072,43.9850
170.3072,45.8150
172.2372,45.8150
172.2372,43.9850
Z" /> 
<circle cx="171.2722" cy="56.3000" r="1.0650" /> 
<circle cx="171.2722" cy="48.0000" r="1.0650" /> 
<circle cx="257.1622" cy="40.6900" r="0.7500" /> 
<circle cx="252.1622" cy="40.6900" r="0.7500" /> 
<circle cx="143.1022" cy="22.9100" r="1.6000" /> 
<circle cx="165.8922" cy="137.4100" r="1.3500" /> 
<circle cx="253.1522" cy="62.9500" r="0.7500" /> 
<circle cx="258.1522" cy="62.9500" r="0.7500" /> 
<circle cx="107.6122" cy="22.9200" r="1.6000" /> 
<circle cx="235.8322" cy="59.4100" r="0.7000" /> 
<circle cx="243.4522" cy="59.4100" r="0.7000" /> 
<circle cx="259.0222" cy="53.4000" r="0.7000" /> 
<circle cx="251.4022" cy="53.4000" r="0.7000" /> 
<path style="fill:#000000; fill-opacity:1.0000; stroke:none;fill-rule:evenodd;"
d="M 269.3022,44.1200
269.3022,42.4200
267.6022,42.4200
267.6022,44.1200
Z" /> 
<circle cx="268.4522" cy="45.8100" r="0.8500" /> 
<circle cx="268.4522" cy="48.3500" r="0.8500" /> 
<circle cx="268.4522" cy="50.8900" r="0.8500" /> 
<circle cx="268.4522" cy="53.4300" r="0.8500" /> 
<circle cx="268.4522" cy="55.9700" r="0.8500" /> 
<circle cx="268.4522" cy="58.5100" r="0.8500" /> 
<circle cx="268.4522" cy="61.0500" r="0.8500" /> 
<path style="fill:#000000; fill-opacity:1.0000; stroke:none;fill-rule:evenodd;"
d="M 194.6922,101.8400
194.6922,100.0400
192.8922,100.0400
192.8922,101.8400
Z" /> 
<circle cx="193.7922" cy="103.4400" r="0.9000" /> 
<circle cx="193.7922" cy="105.9400" r="0.9000" /> 
<path style="fill:#000000; fill-opacity:1.0000; stroke:none;fill-rule:evenodd;"
d="M 187.2922,97.6900
187.2808,97.5837
187.2310,97.4504
187.1458,97.3364
187.0318,97.2512
186.8985,97.2014
186.7922,97.1900
185.7922,97.1900
185.6859,97.2014
185.5526,97.2512
185.4386,97.3364
185.3534,97.4504
185.3036,97.5837
185.2922,97.6900
185.2922,99.6900
185.3036,99.7963
185.3534,99.9296
185.4386,100.0436
185.5526,100.1288
185.6859,100.1786
185.7922,100.1900
186.7922,100.1900
186.8985,100.1786
187.0318,100.1288
187.1458,100.0436
187.2310,99.9296
187.2808,99.7963
187.2922,99.6900
Z" /> 
<path style="fill:#000000; fill-opacity:1.0000; stroke:none;fill-rule:evenodd;"
d="M 187.2922,107.1900
187.2808,107.0837
187.2310,106.9504
187.1458,106.8364
187.0318,106.7512
186.8985,106.7014
186.7922,106.6900
185.7922,106.6900
185.6859,106.7014
185.5526,106.7512
185.4386,106.8364
185.3534,106.9504
185.3036,107.0837
185.2922,107.1900
185.2922,109.1900
185.3036,109.2963
185.3534,109.4296
185.4386,109.5436
185.5526,109.6288
185.6859,109.6786
185.7922,109.6900
186.7922,109.6900
186.8985,109.6786
187.0318,109.6288
187.1458,109.5436
187.2310,109.4296
187.2808,109.2963
187.2922,109.1900
Z" /> 
<circle cx="257.6922" cy="55.9700" r="0.7000" /> 
<circle cx="265.3122" cy="55.9700" r="0.7000" /> 
<circle cx="238.5922" cy="86.0500" r="0.7000" /> 
<circle cx="238.5922" cy="88.5900" r="0.7000" /> 
<path style="fill:#000000; fill-opacity:1.0000; stroke:none;fill-rule:evenodd;"
d="M 232.5422,102.6300
232.5422,101.1300
231.0422,101.1300
231.0422,102.6300
Z" /> 
<circle cx="229.2522" cy="101.8800" r="0.7500" /> 
<circle cx="226.7122" cy="101.8800" r="0.7500" /> 
<circle cx="265.2522" cy="53.4000" r="0.7000" /> 
<circle cx="262.7122" cy="53.4000" r="0.7000" /> 
<circle cx="232.1322" cy="41.2500" r="0.7200" /> 
<circle cx="234.6722" cy="41.2500" r="0.7200" /> 
<circle cx="237.2122" cy="41.2500" r="0.7200" /> 
<path style="fill:#000000; fill-opacity:1.0000; stroke:none;fill-rule:evenodd;"
d="M 235.3922,127.3600
235.4112,127.4557
235.4654,127.5368
235.5465,127.5910
235.6422,127.6100
237.3422,127.6100
237.4379,127.5910
237.5190,127.5368
237.5732,127.4557
237.5922,127.3600
237.5922,125.6600
237.5732,125.5643
237.5190,125.4832
237.4379,125.4290
237.3422,125.4100
235.6422,125.4100
235.5465,125.4290
235.4654,125.4832
235.4112,125.5643
235.3922,125.6600
Z" /> 
<circle cx="246.6522" cy="126.5100" r="1.1000" /> 
<path style="fill:#000000; fill-opacity:1.0000; stroke:none;fill-rule:evenodd;"
d="M 253.0422,130.3100
253.1379,130.2910
253.2190,130.2368
253.2732,130.1557
253.2922,130.0600
253.2922,128.9600
253.2732,128.8643
253.2190,128.7832
253.1379,128.7290
253.0422,128.7100
251.9422,128.7100
251.8465,128.7290
251.7654,128.7832
251.7112,128.8643
251.6922,128.9600
251.6922,130.0600
251.7112,130.1557
251.7654,130.2368
251.8465,130.2910
251.9422,130.3100
Z" /> 
<circle cx="252.4922" cy="127.0100" r="0.8000" /> 
<circle cx="227.1022" cy="84.1600" r="0.7000" /> 
<circle cx="234.7222" cy="84.1600" r="0.7000" /> 
<path style="fill:#000000; fill-opacity:1.0000; stroke:none;fill-rule:evenodd;"
d="M 239.8422,65.0900
239.7465,65.1090
239.6654,65.1632
239.6112,65.2443
239.5922,65.3400
239.5922,66.4400
239.6112,66.5357
239.6654,66.6168
239.7465,66.6710
239.8422,66.6900
240.9422,66.6900
241.0379,66.6710
241.1190,66.6168
241.1732,66.5357
241.1922,66.4400
241.1922,65.3400
241.1732,65.2443
241.1190,65.1632
241.0379,65.1090
240.9422,65.0900
Z" /> 
<circle cx="242.9322" cy="65.8900" r="0.8000" /> 
<circle cx="245.4722" cy="65.8900" r="0.8000" /> 
<circle cx="248.0122" cy="65.8900" r="0.8000" /> 
<circle cx="250.5522" cy="65.8900" r="0.8000" /> 
<circle cx="253.0922" cy="65.8900" r="0.8000" /> 
<circle cx="255.6322" cy="65.8900" r="0.8000" /> 
<circle cx="255.6322" cy="73.5100" r="0.8000" /> 
<circle cx="253.0922" cy="73.5100" r="0.8000" /> 
<circle cx="250.5522" cy="73.5100" r="0.8000" /> 
<circle cx="248.0122" cy="73.5100" r="0.8000" /> 
<circle cx="245.4722" cy="73.5100" r="0.8000" /> 
<circle cx="242.9322" cy="73.5100" r="0.8000" /> 
<circle cx="240.3922" cy="73.5100" r="0.8000" /> 
<circle cx="259.6922" cy="131.0100" r="0.8000" /> 
<circle cx="259.6922" cy="126.0100" r="0.8000" /> 
<circle cx="265.2222" cy="50.8700" r="0.7000" /> 
<circle cx="262.6822" cy="50.8700" r="0.7000" /> 
<circle cx="260.1022" cy="43.2400" r="0.7000" /> 
<circle cx="260.1022" cy="40.7000" r="0.7000" /> 
<path style="fill:#000000; fill-opacity:1.0000; stroke:none;fill-rule:evenodd;"
d="M 209.7622,101.8000
209.7622,100.0000
207.9622,100.0000
207.9622,101.8000
Z" /> 
<circle cx="208.8622" cy="103.4000" r="0.9000" /> 
<circle cx="208.8622" cy="105.9000" r="0.9000" /> 
<path style="fill:#000000; fill-opacity:1.0000; stroke:none;fill-rule:evenodd;"
d="M 202.3622,97.6500
202.3508,97.5437
202.3010,97.4104
202.2158,97.2964
202.1018,97.2112
201.9685,97.1614
201.8622,97.1500
200.8622,97.1500
200.7559,97.1614
200.6226,97.2112
200.5086,97.2964
200.4234,97.4104
200.3736,97.5437
200.3622,97.6500
200.3622,99.6500
200.3736,99.7563
200.4234,99.8896
200.5086,100.0036
200.6226,100.0888
200.7559,100.1386
200.8622,100.1500
201.8622,100.1500
201.9685,100.1386
202.1018,100.0888
202.2158,100.0036
202.3010,99.8896
202.3508,99.7563
202.3622,99.6500
Z" /> 
<path style="fill:#000000; fill-opacity:1.0000; stroke:none;fill-rule:evenodd;"
d="M 202.3622,107.1500
202.3508,107.0437
202.3010,106.9104
202.2158,106.7964
202.1018,106.7112
201.9685,106.6614
201.8622,106.6500
200.8622,106.6500
200.7559,106.6614
200.6226,106.7112
200.5086,106.7964
200.4234,106.9104
200.3736,107.0437
200.3622,107.1500
200.3622,109.1500
200.3736,109.2563
200.4234,109.3896
200.5086,109.5036
200.6226,109.5888
200.7559,109.6386
200.8622,109.6500
201.8622,109.6500
201.9685,109.6386
202.1018,109.5888
202.2158,109.5036
202.3010,109.3896
202.3508,109.2563
202.3622,109.1500
Z" /> 
<path style="fill:#000000; fill-opacity:1.0000; stroke:none;fill-rule:evenodd;"
d="M 185.3572,43.9850
185.3572,45.8150
187.2872,45.8150
187.2872,43.9850
Z" /> 
<circle cx="186.3222" cy="56.3000" r="1.0650" /> 
<circle cx="186.3222" cy="48.0000" r="1.0650" /> 
<circle cx="266.6822" cy="137.4400" r="1.3500" /> 
<circle cx="165.8922" cy="37.2300" r="1.3500" /> 
<circle cx="206.7322" cy="37.2100" r="1.3500" /> 
<circle cx="245.4522" cy="79.4400" r="0.7000" /> 
<circle cx="242.9122" cy="79.4400" r="0.7000" /> 
<path style="fill:#000000; fill-opacity:1.0000; stroke:none;fill-rule:evenodd;"
d="M 200.3672,115.8950
200.3672,117.7250
202.2972,117.7250
202.2972,115.8950
Z" /> 
<circle cx="201.3322" cy="128.2100" r="1.0650" /> 
<circle cx="201.3322" cy="119.9100" r="1.0650" /> 
<circle cx="230.3722" cy="96.8200" r="0.7000" /> 
<circle cx="227.8322" cy="96.8200" r="0.7000" /> 
<circle cx="249.3222" cy="81.8100" r="0.8000" /> 
<circle cx="249.3222" cy="76.8100" r="0.8000" /> 
<path style="fill:#000000; fill-opacity:1.0000; stroke:none;fill-rule:evenodd;"
d="M 200.2872,43.9750
200.2872,45.8050
202.2172,45.8050
202.2172,43.9750
Z" /> 
<circle cx="201.2522" cy="56.2900" r="1.0650" /> 
<circle cx="201.2522" cy="47.9900" r="1.0650" /> 
<circle cx="242.6322" cy="41.3100" r="0.7200" /> 
<circle cx="245.1722" cy="41.3100" r="0.7200" /> 
<circle cx="247.7122" cy="41.3100" r="0.7200" /> 
<circle cx="248.7622" cy="63.0600" r="0.8000" /> 
<circle cx="248.7622" cy="58.0600" r="0.8000" /> 
<circle cx="242.3722" cy="134.0600" r="0.7000" /> 
<circle cx="244.9122" cy="134.0600" r="0.7000" /> 
<circle cx="235.7422" cy="48.8700" r="0.7000" /> 
<circle cx="243.3622" cy="48.8700" r="0.7000" /> 
<circle cx="247.2722" cy="45.4200" r="0.7000" /> 
<circle cx="247.2722" cy="53.0400" r="0.7000" /> 
<circle cx="252.5322" cy="49.7000" r="0.7500" /> 
<circle cx="257.5322" cy="49.7000" r="0.7500" /> 
<circle cx="249.2122" cy="109.1400" r="0.7000" /> 
<circle cx="249.2122" cy="101.5200" r="0.7000" /> 
<path style="fill:#000000; fill-opacity:1.0000; stroke:none;fill-rule:evenodd;"
d="M 179.6472,69.6700
179.6472,67.8700
177.8472,67.8700
177.8472,69.6700
Z" /> 
<circle cx="178.7472" cy="71.2700" r="0.9000" /> 
<circle cx="178.7472" cy="73.7700" r="0.9000" /> 
<path style="fill:#000000; fill-opacity:1.0000; stroke:none;fill-rule:evenodd;"
d="M 172.2472,65.5200
172.2358,65.4137
172.1860,65.2804
172.1008,65.1664
171.9868,65.0812
171.8535,65.0314
171.7472,65.0200
170.7472,65.0200
170.6409,65.0314
170.5076,65.0812
170.3936,65.1664
170.3084,65.2804
170.2586,65.4137
170.2472,65.5200
170.2472,67.5200
170.2586,67.6263
170.3084,67.7596
170.3936,67.8736
170.5076,67.9588
170.6409,68.0086
170.7472,68.0200
171.7472,68.0200
171.8535,68.0086
171.9868,67.9588
172.1008,67.8736
172.1860,67.7596
172.2358,67.6263
172.2472,67.5200
Z" /> 
<path style="fill:#000000; fill-opacity:1.0000; stroke:none;fill-rule:evenodd;"
d="M 172.2472,75.0200
172.2358,74.9137
172.1860,74.7804
172.1008,74.6664
171.9868,74.5812
171.8535,74.5314
171.7472,74.5200
170.7472,74.5200
170.6409,74.5314
170.5076,74.5812
170.3936,74.6664
170.3084,74.7804
170.2586,74.9137
170.2472,75.0200
170.2472,77.0200
170.2586,77.1263
170.3084,77.2596
170.3936,77.3736
170.5076,77.4588
170.6409,77.5086
170.7472,77.5200
171.7472,77.5200
171.8535,77.5086
171.9868,77.4588
172.1008,77.3736
172.1860,77.2596
172.2358,77.1263
172.2472,77.0200
Z" /> 
<circle cx="259.6922" cy="134.1100" r="0.8000" /> 
<circle cx="259.6922" cy="139.1100" r="0.8000" /> 
<circle cx="238.5922" cy="101.7700" r="0.8000" /> 
<circle cx="238.5922" cy="106.7700" r="0.8000" /> 
<circle cx="107.6022" cy="145.4100" r="1.6000" /> 
<path style="fill:#000000; fill-opacity:1.0000; stroke:none;fill-rule:evenodd;"
d="M 185.3472,115.9050
185.3472,117.7350
187.2772,117.7350
187.2772,115.9050
Z" /> 
<circle cx="186.3122" cy="128.2200" r="1.0650" /> 
<circle cx="186.3122" cy="119.9200" r="1.0650" /> 
<circle cx="259.2468" cy="79.3946" r="0.7000" /> 
<circle cx="266.8668" cy="79.3946" r="0.7000" /> 
<circle cx="257.5622" cy="87.4200" r="0.7000" /> 
<circle cx="265.1822" cy="87.4200" r="0.7000" /> 
<path style="fill:#000000; fill-opacity:1.0000; stroke:none;fill-rule:evenodd;"
d="M 179.5922,101.8300
179.5922,100.0300
177.7922,100.0300
177.7922,101.8300
Z" /> 
<circle cx="178.6922" cy="103.4300" r="0.9000" /> 
<circle cx="178.6922" cy="105.9300" r="0.9000" /> 
<path style="fill:#000000; fill-opacity:1.0000; stroke:none;fill-rule:evenodd;"
d="M 172.1922,97.6800
172.1808,97.5737
172.1310,97.4404
172.0458,97.3264
171.9318,97.2412
171.7985,97.1914
171.6922,97.1800
170.6922,97.1800
170.5859,97.1914
170.4526,97.2412
170.3386,97.3264
170.2534,97.4404
170.2036,97.5737
170.1922,97.6800
170.1922,99.6800
170.2036,99.7863
170.2534,99.9196
170.3386,100.0336
170.4526,100.1188
170.5859,100.1686
170.6922,100.1800
171.6922,100.1800
171.7985,100.1686
171.9318,100.1188
172.0458,100.0336
172.1310,99.9196
172.1808,99.7863
172.1922,99.6800
Z" /> 
<path style="fill:#000000; fill-opacity:1.0000; stroke:none;fill-rule:evenodd;"
d="M 172.1922,107.1800
172.1808,107.0737
172.1310,106.9404
172.0458,106.8264
171.9318,106.7412
171.7985,106.6914
171.6922,106.6800
170.6922,106.6800
170.5859,106.6914
170.4526,106.7412
170.3386,106.8264
170.2534,106.9404
170.2036,107.0737
170.1922,107.1800
170.1922,109.1800
170.2036,109.2863
170.2534,109.4196
170.3386,109.5336
170.4526,109.6188
170.5859,109.6686
170.6922,109.6800
171.6922,109.6800
171.7985,109.6686
171.9318,109.6188
172.0458,109.5336
172.1310,109.4196
172.1808,109.2863
172.1922,109.1800
Z" /> 
<circle cx="245.4822" cy="62.4500" r="0.7500" /> 
<circle cx="240.4822" cy="62.4500" r="0.7500" /> 
<circle cx="246.2222" cy="109.1400" r="0.7000" /> 
<circle cx="246.2222" cy="101.5200" r="0.7000" /> 
<path style="fill:#000000; fill-opacity:1.0000; stroke:none;fill-rule:evenodd;"
d="M 269.3022,120.8200
269.3022,119.1200
267.6022,119.1200
267.6022,120.8200
Z" /> 
<circle cx="268.4522" cy="122.5100" r="0.8500" /> 
<circle cx="268.4522" cy="125.0500" r="0.8500" /> 
<circle cx="245.4522" cy="76.5500" r="0.7500" /> 
<circle cx="240.4522" cy="76.5500" r="0.7500" /> 
<circle cx="225.8622" cy="37.2300" r="1.3500" /> 
<path style="fill:#000000; fill-opacity:1.0000; stroke:none;fill-rule:evenodd;"
d="M 188.5122,38.2100
188.5122,36.4100
186.7122,36.4100
186.7122,38.2100
Z" /> 
<circle cx="185.0722" cy="37.3100" r="0.9000" /> 
<path style="fill:#000000; fill-opacity:1.0000; stroke:none;fill-rule:evenodd;"
d="M 247.1522,136.2600
247.1332,136.1643
247.0790,136.0832
246.9979,136.0290
246.9022,136.0100
245.2022,136.0100
245.1065,136.0290
245.0254,136.0832
244.9712,136.1643
244.9522,136.2600
244.9522,137.9600
244.9712,138.0557
245.0254,138.1368
245.1065,138.1910
245.2022,138.2100
246.9022,138.2100
246.9979,138.1910
247.0790,138.1368
247.1332,138.0557
247.1522,137.9600
Z" /> 
<circle cx="235.8922" cy="137.1100" r="1.1000" /> 
<circle cx="252.9422" cy="79.3900" r="0.7000" /> 
<circle cx="255.4822" cy="79.3900" r="0.7000" /> 
<path style="fill:#000000; fill-opacity:1.0000; stroke:none;fill-rule:evenodd;"
d="M 209.6922,69.6600
209.6922,67.8600
207.8922,67.8600
207.8922,69.6600
Z" /> 
<circle cx="208.7922" cy="71.2600" r="0.9000" /> 
<circle cx="208.7922" cy="73.7600" r="0.9000" /> 
<path style="fill:#000000; fill-opacity:1.0000; stroke:none;fill-rule:evenodd;"
d="M 202.2922,65.5100
202.2808,65.4037
202.2310,65.2704
202.1458,65.1564
202.0318,65.0712
201.8985,65.0214
201.7922,65.0100
200.7922,65.0100
200.6859,65.0214
200.5526,65.0712
200.4386,65.1564
200.3534,65.2704
200.3036,65.4037
200.2922,65.5100
200.2922,67.5100
200.3036,67.6163
200.3534,67.7496
200.4386,67.8636
200.5526,67.9488
200.6859,67.9986
200.7922,68.0100
201.7922,68.0100
201.8985,67.9986
202.0318,67.9488
202.1458,67.8636
202.2310,67.7496
202.2808,67.6163
202.2922,67.5100
Z" /> 
<path style="fill:#000000; fill-opacity:1.0000; stroke:none;fill-rule:evenodd;"
d="M 202.2922,75.0100
202.2808,74.9037
202.2310,74.7704
202.1458,74.6564
202.0318,74.5712
201.8985,74.5214
201.7922,74.5100
200.7922,74.5100
200.6859,74.5214
200.5526,74.5712
200.4386,74.6564
200.3534,74.7704
200.3036,74.9037
200.2922,75.0100
200.2922,77.0100
200.3036,77.1163
200.3534,77.2496
200.4386,77.3636
200.5526,77.4488
200.6859,77.4986
200.7922,77.5100
201.7922,77.5100
201.8985,77.4986
202.0318,77.4488
202.1458,77.3636
202.2310,77.2496
202.2808,77.1163
202.2922,77.0100
Z" /> 
<circle cx="256.4122" cy="101.5200" r="0.8000" /> 
<circle cx="256.4122" cy="106.5200" r="0.8000" /> 
<path style="fill:#000000; fill-opacity:1.0000; stroke:none;fill-rule:evenodd;"
d="M 194.6822,69.6700
194.6822,67.8700
192.8822,67.8700
192.8822,69.6700
Z" /> 
<circle cx="193.7822" cy="71.2700" r="0.9000" /> 
<circle cx="193.7822" cy="73.7700" r="0.9000" /> 
<path style="fill:#000000; fill-opacity:1.0000; stroke:none;fill-rule:evenodd;"
d="M 187.2822,65.5200
187.2708,65.4137
187.2210,65.2804
187.1358,65.1664
187.0218,65.0812
186.8885,65.0314
186.7822,65.0200
185.7822,65.0200
185.6759,65.0314
185.5426,65.0812
185.4286,65.1664
185.3434,65.2804
185.2936,65.4137
185.2822,65.5200
185.2822,67.5200
185.2936,67.6263
185.3434,67.7596
185.4286,67.8736
185.5426,67.9588
185.6759,68.0086
185.7822,68.0200
186.7822,68.0200
186.8885,68.0086
187.0218,67.9588
187.1358,67.8736
187.2210,67.7596
187.2708,67.6263
187.2822,67.5200
Z" /> 
<path style="fill:#000000; fill-opacity:1.0000; stroke:none;fill-rule:evenodd;"
d="M 187.2822,75.0200
187.2708,74.9137
187.2210,74.7804
187.1358,74.6664
187.0218,74.5812
186.8885,74.5314
186.7822,74.5200
185.7822,74.5200
185.6759,74.5314
185.5426,74.5812
185.4286,74.6664
185.3434,74.7804
185.2936,74.9137
185.2822,75.0200
185.2822,77.0200
185.2936,77.1263
185.3434,77.2596
185.4286,77.3736
185.5426,77.4588
185.6759,77.5086
185.7822,77.5200
186.7822,77.5200
186.8885,77.5086
187.0218,77.4588
187.1358,77.3736
187.2210,77.2596
187.2708,77.1263
187.2822,77.0200
Z" /> 
<circle cx="231.4222" cy="62.0000" r="0.7200" /> 
<circle cx="231.4222" cy="59.4600" r="0.7200" /> 
<circle cx="231.4222" cy="56.9200" r="0.7200" /> 
<circle cx="225.8522" cy="137.4500" r="1.3500" /> 
<circle cx="206.7322" cy="137.4100" r="1.3500" /> 
<path style="fill:#000000; fill-opacity:1.0000; stroke:none;fill-rule:evenodd;"
d="M 170.2772,115.9050
170.2772,117.7350
172.2072,117.7350
172.2072,115.9050
Z" /> 
<circle cx="171.2422" cy="128.2200" r="1.0650" /> 
<circle cx="171.2422" cy="119.9200" r="1.0650" /> 
<path style="fill:#000000; fill-opacity:1.0000; stroke:none;fill-rule:evenodd;"
d="M 224.8522,77.3200
224.8522,75.6200
223.1522,75.6200
223.1522,77.3200
Z" /> 
<circle cx="224.0022" cy="79.0100" r="0.8500" /> 
<circle cx="224.0022" cy="81.5500" r="0.8500" /> 
<circle cx="224.0022" cy="84.0900" r="0.8500" /> 
<circle cx="224.0022" cy="86.6300" r="0.8500" /> 
<circle cx="224.0022" cy="89.1700" r="0.8500" /> 
<circle cx="224.0022" cy="91.7100" r="0.8500" /> 
<circle cx="224.0022" cy="94.2500" r="0.8500" /> 
<circle cx="224.0022" cy="96.7900" r="0.8500" /> 
<path style="fill:#000000; fill-opacity:1.0000; stroke:none;fill-rule:evenodd;"
d="M 230.8422,72.4600
230.8422,70.9600
229.3422,70.9600
229.3422,72.4600
Z" /> 
<circle cx="227.5522" cy="71.7100" r="0.7500" /> 
<circle cx="225.0122" cy="71.7100" r="0.7500" /> 
<circle cx="265.3222" cy="45.7300" r="0.7000" /> 
<circle cx="262.7822" cy="45.7300" r="0.7000" /> 
<path style="fill:#000000; fill-opacity:1.0000; stroke:none;fill-rule:evenodd;"
d="M 251.7422,133.3100
251.6465,133.3290
251.5654,133.3832
251.5112,133.4643
251.4922,133.5600
251.4922,134.6600
251.5112,134.7557
251.5654,134.8368
251.6465,134.8910
251.7422,134.9100
252.8422,134.9100
252.9379,134.8910
253.0190,134.8368
253.0732,134.7557
253.0922,134.6600
253.0922,133.5600
253.0732,133.4643
253.0190,133.3832
252.9379,133.3290
252.8422,133.3100
Z" /> 
<circle cx="252.2922" cy="136.6100" r="0.8000" /> 
<path style="fill:#000000; fill-opacity:1.0000; stroke:none;fill-rule:evenodd;"
d="M 238.0722,90.3700
237.9765,90.3890
237.8954,90.4432
237.8412,90.5243
237.8222,90.6200
237.8222,91.7200
237.8412,91.8157
237.8954,91.8968
237.9765,91.9510
238.0722,91.9700
239.1722,91.9700
239.2679,91.9510
239.3490,91.8968
239.4032,91.8157
239.4222,91.7200
239.4222,90.6200
239.4032,90.5243
239.3490,90.4432
239.2679,90.3890
239.1722,90.3700
Z" /> 
<circle cx="241.1622" cy="91.1700" r="0.8000" /> 
<circle cx="243.7022" cy="91.1700" r="0.8000" /> 
<circle cx="246.2422" cy="91.1700" r="0.8000" /> 
<circle cx="248.7822" cy="91.1700" r="0.8000" /> 
<circle cx="251.3222" cy="91.1700" r="0.8000" /> 
<circle cx="253.8622" cy="91.1700" r="0.8000" /> 
<circle cx="256.4022" cy="91.1700" r="0.8000" /> 
<circle cx="256.4022" cy="98.7900" r="0.8000" /> 
<circle cx="253.8622" cy="98.7900" r="0.8000" /> 
<circle cx="251.3222" cy="98.7900" r="0.8000" /> 
<circle cx="248.7822" cy="98.7900" r="0.8000" /> 
<circle cx="246.2422" cy="98.7900" r="0.8000" /> 
<circle cx="243.7022" cy="98.7900" r="0.8000" /> 
<circle cx="241.1622" cy="98.7900" r="0.8000" /> 
<circle cx="238.6222" cy="98.7900" r="0.8000" /> 
<circle cx="264.9922" cy="61.0600" r="0.7000" /> 
<circle cx="264.9922" cy="63.6000" r="0.7000" /> 
<circle cx="252.9922" cy="76.5700" r="0.7500" /> 
<circle cx="257.9922" cy="76.5700" r="0.7500" /> 
<circle cx="227.1322" cy="81.5300" r="0.7000" /> 
<circle cx="234.7522" cy="81.5300" r="0.7000" /> 
<circle cx="236.8722" cy="45.5500" r="0.7000" /> 
<circle cx="239.4122" cy="45.5500" r="0.7000" /> 
<circle cx="143.1022" cy="145.4100" r="1.6000" /> 
<path style="fill:#000000; fill-opacity:1.0000; stroke:none;fill-rule:evenodd;"
d="M 188.5522,138.2800
188.5522,136.4800
186.7522,136.4800
186.7522,138.2800
Z" /> 
<circle cx="185.1122" cy="137.3800" r="0.9000" /> 
<circle cx="238.8322" cy="129.5100" r="0.7000" /> 
<circle cx="241.3722" cy="129.5100" r="0.7000" /> 
<path style="fill:#000000; fill-opacity:1.0000; stroke:none;fill-rule:evenodd;"
d="M 207.6422,42.4300
207.6422,44.1300
209.3422,44.1300
209.3422,42.4300
Z" /> 
<circle cx="208.4922" cy="45.8200" r="0.8500" /> 
<circle cx="208.4922" cy="48.3600" r="0.8500" /> 
<circle cx="208.4922" cy="50.9000" r="0.8500" /> 
<circle cx="208.4922" cy="53.4400" r="0.8500" /> 
<circle cx="208.4922" cy="55.9800" r="0.8500" /> 
<circle cx="208.4922" cy="58.5200" r="0.8500" /> 
<circle cx="208.4922" cy="61.0600" r="0.8500" /> 
<circle cx="268.3098" cy="109.1900" r="1.0000" /> 
<path style="fill:#000000; fill-opacity:1.0000; stroke:none;fill-rule:evenodd;"
d="M 225.7722,111.5000
225.7912,111.5957
225.8454,111.6768
225.9265,111.7310
226.0222,111.7500
227.2222,111.7500
227.3179,111.7310
227.3990,111.6768
227.4532,111.5957
227.4722,111.5000
227.4722,110.3000
227.4532,110.2043
227.3990,110.1232
227.3179,110.0690
227.2222,110.0500
226.0222,110.0500
225.9265,110.0690
225.8454,110.1232
225.7912,110.2043
225.7722,110.3000
Z" /> 
<circle cx="229.1622" cy="110.9000" r="0.8500" /> 
<circle cx="226.6222" cy="113.4400" r="0.8500" /> 
<circle cx="229.1622" cy="113.4400" r="0.8500" /> 
<circle cx="226.6222" cy="115.9800" r="0.8500" /> 
<circle cx="229.1622" cy="115.9800" r="0.8500" /> 
<circle cx="226.6222" cy="118.5200" r="0.8500" /> 
<circle cx="229.1622" cy="118.5200" r="0.8500" /> 
<circle cx="226.6222" cy="121.0600" r="0.8500" /> 
<circle cx="229.1622" cy="121.0600" r="0.8500" /> 
<circle cx="226.6222" cy="123.6000" r="0.8500" /> 
<circle cx="229.1622" cy="123.6000" r="0.8500" /> 
<circle cx="226.6222" cy="126.1400" r="0.8500" /> 
<circle cx="229.1622" cy="126.1400" r="0.8500" /> 
<circle cx="226.6222" cy="128.6800" r="0.8500" /> 
<circle cx="229.1622" cy="128.6800" r="0.8500" /> 
<path style="fill:#000000; fill-opacity:1.0000; stroke:none;fill-rule:evenodd;"
d="M 207.6322,119.1100
207.6322,120.8100
209.3322,120.8100
209.3322,119.1100
Z" /> 
<circle cx="208.4822" cy="122.5000" r="0.8500" /> 
<circle cx="208.4822" cy="125.0400" r="0.8500" /> 
<path style="fill:#000000; fill-opacity:1.0000; stroke:none;fill-rule:evenodd;"
d="M 163.2022,75.6100
163.2022,77.3100
164.9022,77.3100
164.9022,75.6100
Z" /> 
<circle cx="164.0522" cy="79.0000" r="0.8500" /> 
<circle cx="164.0522" cy="81.5400" r="0.8500" /> 
<circle cx="164.0522" cy="84.0800" r="0.8500" /> 
<circle cx="164.0522" cy="86.6200" r="0.8500" /> 
<circle cx="164.0522" cy="89.1600" r="0.8500" /> 
<circle cx="164.0522" cy="91.7000" r="0.8500" /> 
<circle cx="164.0522" cy="94.2400" r="0.8500" /> 
<circle cx="164.0522" cy="96.7800" r="0.8500" /> 
<circle cx="223.7722" cy="68.9700" r="1.0000" /> 
<circle cx="268.4322" cy="67.8200" r="1.0000" /> 
<circle cx="257.3222" cy="35.5300" r="1.0000" /> 
<circle cx="268.3722" cy="130.7400" r="1.0000" /> 
<circle cx="223.9022" cy="103.0000" r="1.0000" /> 
<circle cx="268.2398" cy="114.5400" r="1.0000" /> 
</g> 
</svg>
